<svg
    xmlns="http://www.w3.org/2000/svg"
    viewBox="0 0 907 907"
    id="vector"
    width="907px"
    height="907px">
    <path
        id="path_1"
        d="M 274 400.479 C 274 384.739 286.76 371.979 302.5 371.979 C 318.24 371.979 331 384.739 331 400.479 L 331 506.521 C 331 522.261 318.24 535.021 302.5 535.021 C 286.76 535.021 274 522.261 274 506.521 Z M 350 324.058 C 350 308.594 362.536 296.058 378 296.058 C 393.464 296.058 406 308.594 406 324.058 L 406 582.942 C 406 598.406 393.464 610.942 378 610.942 C 362.536 610.942 350 598.406 350 582.942 Z M 425 249.479 C 425 233.739 437.76 220.979 453.5 220.979 C 469.241 220.979 482.001 233.739 482.001 249.479 L 482 657.521 C 482 673.261 469.24 686.021 453.5 686.021 C 437.76 686.021 425 673.261 425 657.521 Z M 198 362.479 C 198 346.739 210.76 333.979 226.5 333.979 C 242.24 333.979 255 346.739 255 362.479 L 255 544.442 C 255 560.182 242.24 572.942 226.5 572.942 C 210.76 572.942 198 560.182 198 544.442 Z M 123 336.521 C 123 320.781 135.76 308.021 151.5 308.021 C 167.24 308.021 180 320.781 180 336.521 L 180 570.479 C 180 586.219 167.24 598.979 151.5 598.979 C 135.76 598.979 123 586.219 123 570.479 Z M 501 361.979 C 501 346.515 513.536 333.979 529 333.979 C 544.464 333.979 557 346.515 557 361.979 L 557 544.942 C 557 560.406 544.464 572.942 529 572.942 C 513.536 572.942 501 560.406 501 544.942 Z M 576 298.521 C 576 282.781 588.76 270.021 604.5 270.021 C 620.24 270.021 633 282.781 633 298.521 L 633 607.558 C 633 623.299 620.24 636.058 604.5 636.058 C 588.76 636.058 576 623.298 576 607.558 Z M 652 400.479 C 652 384.739 664.76 371.979 680.5 371.979 C 696.24 371.979 709 384.739 709 400.479 L 709 506.521 C 709 522.261 696.24 535.021 680.5 535.021 C 664.76 535.021 652 522.261 652 506.521 Z M 727 336.442 C 727 320.702 739.76 307.942 755.5 307.942 C 771.24 307.942 784 320.702 784 336.442 L 784 570.479 C 784 586.219 771.24 598.979 755.5 598.979 C 739.76 598.979 727 586.219 727 570.479 Z"
        fill="#fdea48"
        stroke-width="1"
        fill-rule="evenodd"/>
</svg>
