<svg
    xmlns="http://www.w3.org/2000/svg"
    viewBox="0 0 907 907"
    id="vector"
    width="907px"
    height="907px">
    <path
        id="path_1"
        d="M 274 347.557 C 274 331.817 286.76 319.057 302.5 319.057 C 318.24 319.057 331 331.817 331 347.557 L 331 559.443 C 331 575.183 318.24 587.943 302.5 587.943 C 286.76 587.943 274 575.183 274 559.443 Z M 350 272.057 C 350 256.593 362.536 244.057 378 244.057 C 393.464 244.057 406 256.593 406 272.057 L 406 635.167 C 406 650.631 393.464 663.167 378 663.167 C 362.536 663.167 350 650.631 350 635.167 Z M 425 196.557 C 425 180.817 437.76 168.057 453.5 168.057 C 469.24 168.057 482 180.817 482 196.557 L 482 710.443 C 482 726.183 469.24 738.943 453.5 738.943 C 437.76 738.943 425 726.183 425 710.443 Z M 198 275.667 C 198 259.927 210.76 247.167 226.5 247.167 C 242.24 247.167 255 259.927 255 275.667 L 255 630.557 C 255 640.194 249.662 648.584 242.13 652.584 C 238.13 656.584 232.604 659.057 226.5 659.057 C 210.76 659.057 198 646.297 198 630.557 Z M 123 389.667 C 123 373.927 135.76 361.167 151.5 361.167 C 167.24 361.167 180 373.927 180 389.667 L 180 517.557 C 180 533.297 167.24 546.057 151.5 546.057 C 135.76 546.057 123 533.297 123 517.557 Z M 501 309.057 C 501 293.593 513.536 281.057 529 281.057 C 544.464 281.057 557 293.593 557 309.057 L 557 597.167 C 557 612.631 544.464 625.167 529 625.167 C 513.536 625.167 501 612.631 501 597.167 Z M 576 351.664 C 576 335.926 588.758 323.167 604.497 323.167 C 620.235 323.167 632.993 335.926 632.993 351.664 L 632.993 555.336 C 632.993 564.971 627.657 573.359 620.126 577.359 C 616.126 581.359 610.6 583.833 604.497 583.833 C 588.758 583.833 576 571.074 576 555.336 Z M 652 313.667 C 652 297.927 664.76 285.167 680.5 285.167 C 696.24 285.167 709 297.927 709 313.667 L 709 593.333 C 709 609.073 696.24 621.833 680.5 621.833 C 664.76 621.833 652 609.073 652 593.333 Z M 727 388.667 C 727 372.927 739.76 360.167 755.5 360.167 C 771.24 360.167 784 372.927 784 388.667 L 784 517.557 C 784 533.297 771.24 546.057 755.5 546.057 C 739.76 546.057 727 533.297 727 517.557 Z"
        fill="#e4b7c2"
        stroke-width="1"
        fill-rule="evenodd"/>
</svg>
