<svg
    xmlns="http://www.w3.org/2000/svg"
    viewBox="0 0 907 907"
    id="vector"
    width="907px"
    height="907px">
    <path
        id="path_1"
        d="M 274 371.749 C 274 356.009 286.76 343.249 302.5 343.249 C 318.24 343.249 331 356.009 331 371.749 L 331 535.251 C 331 550.991 318.24 563.751 302.5 563.751 C 286.76 563.751 274 550.991 274 535.251 Z M 350 295.706 C 350 280.242 362.536 267.706 378 267.706 C 393.464 267.706 406 280.242 406 295.706 L 406 611.294 C 406 626.758 393.464 639.294 378 639.294 C 362.536 639.294 350 626.758 350 611.294 Z M 425 289.794 C 425 274.054 437.76 261.294 453.5 261.294 C 469.241 261.294 482.001 274.054 482.001 289.794 L 482 617.206 C 482 632.946 469.24 645.706 453.5 645.706 C 437.76 645.706 425 632.946 425 617.206 Z M 198 334.199 C 198 318.463 210.757 305.706 226.493 305.706 C 242.229 305.706 254.986 318.463 254.986 334.199 L 254.986 572.801 C 254.986 584.266 247.423 593.964 237.431 596.764 C 234.631 599.563 230.765 601.294 226.493 601.294 C 210.757 601.294 198 588.537 198 572.801 Z M 123 365.251 C 123 349.511 135.76 336.751 151.5 336.751 C 167.24 336.751 180 349.511 180 365.251 L 180 541.749 C 180 557.489 167.24 570.249 151.5 570.249 C 135.76 570.249 123 557.489 123 541.749 Z M 501 333.249 C 501 317.785 513.536 305.249 529 305.249 C 544.464 305.249 557 317.785 557 333.249 L 557 573.294 C 557 588.758 544.464 601.294 529 601.294 C 513.536 601.294 501 588.758 501 573.294 Z M 576 258.206 C 576 242.466 588.76 229.706 604.5 229.706 C 620.24 229.706 633 242.466 633 258.206 L 633 648.251 C 633 659.72 625.434 669.422 615.438 672.221 C 612.639 675.02 608.771 676.751 604.5 676.751 C 588.76 676.751 576 663.991 576 648.251 Z M 652 371.749 C 652 356.009 664.76 343.249 680.5 343.249 C 696.24 343.249 709 356.009 709 371.749 L 709 535.251 C 709 550.991 696.24 563.751 680.5 563.751 C 664.76 563.751 652 550.991 652 535.251 Z M 727 365.251 C 727 349.511 739.76 336.751 755.5 336.751 C 771.24 336.751 784 349.511 784 365.251 L 784 541.749 C 784 557.489 771.24 570.249 755.5 570.249 C 739.76 570.249 727 557.489 727 541.749 Z"
        fill="#8ccd90"
        stroke-width="1"
        fill-rule="evenodd"/>
</svg>
