<svg
    xmlns="http://www.w3.org/2000/svg"
    viewBox="0 0 907 907"
    id="vector"
    width="907px"
    height="907px">
    <path
        id="path_1"
        d="M 274 330.794 C 274 315.054 286.76 302.294 302.5 302.294 C 318.24 302.294 331 315.054 331 330.794 L 331 576.206 C 331 591.946 318.24 604.706 302.5 604.706 C 286.76 604.706 274 591.946 274 576.206 Z M 350 255.294 C 350 239.83 362.536 227.294 378 227.294 C 393.464 227.294 406 239.83 406 255.294 L 406 651.71 C 406 667.174 393.464 679.71 378 679.71 C 362.536 679.71 350 667.174 350 651.71 Z M 425 179.794 C 425 164.054 437.76 151.294 453.5 151.294 C 469.24 151.294 482 164.054 482 179.794 L 482 727.206 C 482 742.946 469.24 755.706 453.5 755.706 C 437.76 755.706 425 742.946 425 727.206 Z M 198 292.21 C 198 276.47 210.76 263.71 226.5 263.71 C 242.24 263.71 255 276.47 255 292.21 L 255 613.794 C 255 621.694 251.773 628.841 246.575 633.979 C 241.437 639.116 234.34 642.294 226.5 642.294 C 210.76 642.294 198 629.534 198 613.794 Z M 123 406.21 C 123 390.47 135.76 377.71 151.5 377.71 C 167.24 377.71 180 390.47 180 406.21 L 180 500.794 C 180 516.534 167.24 529.294 151.5 529.294 C 135.76 529.294 123 516.534 123 500.794 Z M 501 292.294 C 501 276.83 513.536 264.294 529 264.294 C 544.464 264.294 557 276.83 557 292.294 L 557 613.71 C 557 629.174 544.464 641.71 529 641.71 C 513.536 641.71 501 629.174 501 613.71 Z M 576 368.21 C 576 352.47 588.76 339.71 604.5 339.71 C 620.24 339.71 633 352.47 633 368.21 L 633 538.79 C 633 546.69 629.773 553.837 624.575 558.975 C 619.437 564.112 612.34 567.29 604.5 567.29 C 588.76 567.29 576 554.53 576 538.79 Z M 652 330.21 C 652 314.47 664.76 301.71 680.5 301.71 C 696.24 301.71 709 314.47 709 330.21 L 709 576.79 C 709 592.53 696.24 605.29 680.5 605.29 C 664.76 605.29 652 592.53 652 576.79 Z M 727 405.21 C 727 389.47 739.76 376.71 755.5 376.71 C 771.24 376.71 784 389.47 784 405.21 L 784 500.794 C 784 516.534 771.24 529.294 755.5 529.294 C 739.76 529.294 727 516.534 727 500.794 Z"
        fill="#e2e2dd"
        stroke-width="1"
        fill-rule="evenodd"/>
</svg>
