<svg
    xmlns="http://www.w3.org/2000/svg"
    viewBox="0 0 907 907"
    id="vector"
    width="907px"
    height="907px">
    <path
        id="path_1"
        d="M 274 357.385 C 274 341.645 286.76 328.885 302.5 328.885 C 318.24 328.885 331 341.645 331 357.385 L 331 549.615 C 331 565.355 318.24 578.115 302.5 578.115 C 286.76 578.115 274 565.355 274 549.615 Z M 350 281.532 C 350 266.068 362.536 253.532 378 253.532 C 393.464 253.532 406 266.068 406 281.532 L 406 625.468 C 406 640.932 393.464 653.468 378 653.468 C 362.536 653.468 350 640.932 350 625.468 Z M 425 303.968 C 425 288.228 437.76 275.468 453.5 275.468 C 469.24 275.468 482 288.228 482 303.968 L 482 603.032 C 482 618.772 469.24 631.532 453.5 631.532 C 437.76 631.532 425 618.772 425 603.032 Z M 198 320.021 C 198 304.287 210.755 291.532 226.49 291.532 C 242.224 291.532 254.98 304.287 254.98 320.021 L 254.98 586.979 C 254.98 599.93 245.61 610.691 233.619 612.516 C 231.794 614.34 229.274 615.468 226.49 615.468 C 210.755 615.468 198 602.713 198 586.979 Z M 123 379.615 C 123 363.875 135.76 351.115 151.5 351.115 C 167.24 351.115 180 363.875 180 379.615 L 180 527.385 C 180 543.125 167.24 555.885 151.5 555.885 C 135.76 555.885 123 543.125 123 527.385 Z M 501 318.885 C 501 303.421 513.536 290.885 529 290.885 C 544.464 290.885 557 303.421 557 318.885 L 557 587.468 C 557 602.932 544.464 615.468 529 615.468 C 513.536 615.468 501 602.932 501 587.468 Z M 576 244.032 C 576 228.292 588.76 215.532 604.5 215.532 C 620.241 215.532 633.001 228.292 633.001 244.032 L 633 662.615 C 633 675.571 623.625 686.338 611.629 688.163 C 609.805 689.987 607.284 691.115 604.5 691.115 C 588.76 691.115 576 678.355 576 662.615 Z M 652 357.385 C 652 341.645 664.76 328.885 680.5 328.885 C 696.24 328.885 709 341.645 709 357.385 L 709 549.615 C 709 565.355 696.24 578.115 680.5 578.115 C 664.76 578.115 652 565.355 652 549.615 Z M 727 379.615 C 727 363.875 739.76 351.115 755.5 351.115 C 771.24 351.115 784 363.875 784 379.615 L 784 527.385 C 784 543.125 771.24 555.885 755.5 555.885 C 739.76 555.885 727 543.125 727 527.385 Z"
        fill="#5cc0b3"
        stroke-width="1"
        fill-rule="evenodd"/>
</svg>
