<svg
    xmlns="http://www.w3.org/2000/svg"
    viewBox="0 0 907 907"
    id="vector"
    width="907px"
    height="907px">
    <path
        id="path_1"
        d="M 274 371.749 C 274 356.009 286.76 343.249 302.5 343.249 C 318.24 343.249 331 356.009 331 371.749 L 331 535.251 C 331 550.991 318.24 563.751 302.5 563.751 C 286.76 563.751 274 550.991 274 535.251 Z M 350 296.249 C 350 280.785 362.536 268.249 378 268.249 C 393.464 268.249 406 280.785 406 296.249 L 406 611.294 C 406 626.758 393.464 639.294 378 639.294 C 362.536 639.294 350 626.758 350 611.294 Z M 425 220.749 C 425 205.009 437.76 192.249 453.5 192.249 C 469.241 192.249 482.001 205.009 482.001 220.749 L 482 686.251 C 482 701.991 469.24 714.751 453.5 714.751 C 437.76 714.751 425 701.991 425 686.251 Z M 198 251.794 C 198 236.054 210.76 223.294 226.501 223.294 C 242.241 223.294 255.001 236.054 255.001 251.794 L 255.001 654.749 C 255.001 666.891 246.616 677.074 235.715 679.433 C 233.356 681.791 230.099 683.249 226.501 683.249 C 210.76 683.249 198 670.489 198 654.749 Z M 123 365.794 C 123 350.054 135.76 337.294 151.5 337.294 C 167.24 337.294 180 350.054 180 365.794 L 180 541.749 C 180 557.489 167.24 570.249 151.5 570.249 C 135.76 570.249 123 557.489 123 541.749 Z M 501 333.249 C 501 317.785 513.536 305.249 529 305.249 C 544.464 305.249 557 317.785 557 333.249 L 557 573.294 C 557 588.758 544.464 601.294 529 601.294 C 513.536 601.294 501 588.758 501 573.294 Z M 576 327.785 C 576 312.05 588.756 299.294 604.492 299.294 C 620.227 299.294 632.983 312.05 632.983 327.785 L 632.983 579.215 C 632.983 591.352 624.603 601.531 613.706 603.889 C 611.348 606.247 608.09 607.706 604.492 607.706 C 588.756 607.706 576 594.95 576 579.215 Z M 652 289.794 C 652 274.054 664.76 261.294 680.5 261.294 C 696.241 261.294 709.001 274.054 709.001 289.794 L 709 617.206 C 709 632.946 696.24 645.706 680.5 645.706 C 664.76 645.706 652 632.946 652 617.206 Z M 727 364.794 C 727 349.054 739.76 336.294 755.5 336.294 C 771.24 336.294 784 349.054 784 364.794 L 784 541.749 C 784 557.489 771.24 570.249 755.5 570.249 C 739.76 570.249 727 557.489 727 541.749 Z"
        fill="#e6789b"
        stroke-width="1"
        fill-rule="evenodd"/>
</svg>
