<svg
    xmlns="http://www.w3.org/2000/svg"
    viewBox="0 0 907 907"
    id="vector"
    width="907px"
    height="907px">
    <path
        id="path_1"
        d="M 274 406.5 C 274 390.76 286.76 378 302.5 378 C 318.24 378 331 390.76 331 406.5 L 331 500.5 C 331 516.24 318.24 529 302.5 529 C 286.76 529 274 516.24 274 500.5 Z M 350 331 C 350 315.536 362.536 303 378 303 C 393.464 303 406 315.536 406 331 L 406 577 C 406 592.464 393.464 605 378 605 C 362.536 605 350 592.464 350 577 Z M 425 255.5 C 425 239.76 437.76 227 453.5 227 C 469.241 227 482.001 239.76 482.001 255.5 L 482 651.5 C 482 667.24 469.24 680 453.5 680 C 437.76 680 425 667.24 425 651.5 Z M 198 217.5 C 198 201.76 210.76 189 226.501 189 C 242.241 189 255.001 201.76 255.001 217.5 L 255.001 689.5 C 255.001 705.241 242.24 718.001 226.5 718.001 C 226.5 718.001 226.501 718 226.501 718 C 210.76 718 198 705.24 198 689.5 Z M 123 331.5 C 123 315.76 135.76 303 151.5 303 C 167.24 303 180 315.76 180 331.5 L 180 576.5 C 180 592.24 167.24 605 151.5 605 C 135.76 605 123 592.24 123 576.5 Z M 501 368 C 501 352.536 513.536 340 529 340 C 544.464 340 557 352.536 557 368 L 557 539 C 557 554.464 544.464 567 529 567 C 513.536 567 501 554.464 501 539 Z M 576 293.484 C 576 277.753 588.753 265 604.485 265 C 620.216 265 632.969 277.753 632.969 293.484 L 632.969 613.516 C 632.969 629.248 620.216 642 604.484 642 C 604.484 642 604.485 642 604.485 642 C 588.753 642 576 629.247 576 613.516 Z M 652 255.5 C 652 239.76 664.76 227 680.5 227 C 696.241 227 709.001 239.76 709.001 255.5 L 709 651.5 C 709 667.24 696.24 680 680.5 680 C 664.76 680 652 667.24 652 651.5 Z M 727 330.5 C 727 314.76 739.76 302 755.5 302 C 771.24 302 784 314.76 784 330.5 L 784 576.5 C 784 592.24 771.24 605 755.5 605 C 739.76 605 727 592.24 727 576.5 Z"
        fill="#e91e63"
        stroke-width="1"
        fill-rule="evenodd"/>
</svg>
