<svg
    xmlns="http://www.w3.org/2000/svg"
    viewBox="0 0 907 907"
    id="vector"
    width="907px"
    height="907px">
    <path
        id="path_1"
        d="M 274 400.479 C 274 384.739 286.76 371.979 302.5 371.979 C 318.24 371.979 331 384.739 331 400.479 L 331 506.521 C 331 522.261 318.24 535.021 302.5 535.021 C 286.76 535.021 274 522.261 274 506.521 Z M 350 324.979 C 350 309.515 362.536 296.979 378 296.979 C 393.464 296.979 406 309.515 406 324.979 L 406 582.942 C 406 598.406 393.464 610.942 378 610.942 C 362.536 610.942 350 598.406 350 582.942 Z M 425 261.442 C 425 245.702 437.76 232.942 453.5 232.942 C 469.241 232.942 482.001 245.702 482.001 261.442 L 482 645.558 C 482 661.298 469.24 674.058 453.5 674.058 C 437.76 674.058 425 661.298 425 645.558 Z M 198 223.52 C 198 207.78 210.759 195.021 226.5 195.021 C 242.239 195.021 254.998 207.78 254.998 223.52 L 254.998 683.48 C 254.998 699.221 242.238 711.98 226.499 711.98 C 226.499 711.98 226.5 711.979 226.5 711.979 C 210.759 711.979 198 699.22 198 683.48 Z M 123 337.442 C 123 321.702 135.76 308.942 151.5 308.942 C 167.24 308.942 180 321.702 180 337.442 L 180 570.479 C 180 586.219 167.24 598.979 151.5 598.979 C 135.76 598.979 123 586.219 123 570.479 Z M 501 361.979 C 501 346.515 513.536 333.979 529 333.979 C 544.464 333.979 557 346.515 557 361.979 L 557 544.942 C 557 560.406 544.464 572.942 529 572.942 C 513.536 572.942 501 560.406 501 544.942 Z M 576 287.464 C 576 271.733 588.754 258.979 604.486 258.979 C 620.218 258.979 632.972 271.733 632.972 287.464 L 632.971 619.536 C 632.971 635.268 620.218 648.021 604.485 648.021 C 604.485 648.021 604.486 648.021 604.486 648.021 C 588.754 648.021 576 635.267 576 619.536 Z M 652 261.442 C 652 245.702 664.76 232.942 680.5 232.942 C 696.241 232.942 709.001 245.702 709.001 261.442 L 709 645.558 C 709 661.298 696.24 674.058 680.5 674.058 C 664.76 674.058 652 661.298 652 645.558 Z M 727 336.521 C 727 320.781 739.76 308.021 755.5 308.021 C 771.24 308.021 784 320.781 784 336.521 L 784 570.479 C 784 586.219 771.24 598.979 755.5 598.979 C 739.76 598.979 727 586.219 727 570.479 Z"
        fill="#d7296e"
        stroke-width="1"
        fill-rule="evenodd"/>
</svg>
