<svg
    xmlns="http://www.w3.org/2000/svg"
    viewBox="0 0 907 907"
    id="vector"
    width="907px"
    height="907px">
    <path
        id="path_1"
        d="M 274 379.615 C 274 363.875 286.76 351.115 302.5 351.115 C 318.24 351.115 331 363.875 331 379.615 L 331 527.385 C 331 543.125 318.24 555.885 302.5 555.885 C 286.76 555.885 274 543.125 274 527.385 Z M 350 303.468 C 350 288.004 362.536 275.468 378 275.468 C 393.464 275.468 406 288.004 406 303.468 L 406 603.532 C 406 618.996 393.464 631.532 378 631.532 C 362.536 631.532 350 618.996 350 603.532 Z M 425 228.615 C 425 212.875 437.76 200.115 453.5 200.115 C 469.241 200.115 482.001 212.875 482.001 228.615 L 482 678.385 C 482 694.125 469.24 706.885 453.5 706.885 C 437.76 706.885 425 694.125 425 678.385 Z M 198 341.615 C 198 325.875 210.76 313.115 226.5 313.115 C 242.24 313.115 255 325.875 255 341.615 L 255 565.032 C 255 580.772 242.24 593.532 226.5 593.532 C 210.76 593.532 198 580.772 198 565.032 Z M 123 357.385 C 123 341.645 135.76 328.885 151.5 328.885 C 167.24 328.885 180 341.645 180 357.385 L 180 549.615 C 180 565.355 167.24 578.115 151.5 578.115 C 135.76 578.115 123 565.355 123 549.615 Z M 501 341.115 C 501 325.651 513.536 313.115 529 313.115 C 544.464 313.115 557 325.651 557 341.115 L 557 565.532 C 557 580.996 544.464 593.532 529 593.532 C 513.536 593.532 501 580.996 501 565.532 Z M 576 319.385 C 576 303.645 588.76 290.885 604.5 290.885 C 620.24 290.885 633 303.645 633 319.385 L 633 586.968 C 633 602.709 620.24 615.468 604.5 615.468 C 588.76 615.468 576 602.708 576 586.968 Z M 652 379.615 C 652 363.875 664.76 351.115 680.5 351.115 C 696.24 351.115 709 363.875 709 379.615 L 709 527.385 C 709 543.125 696.24 555.885 680.5 555.885 C 664.76 555.885 652 543.125 652 527.385 Z M 727 357.032 C 727 341.292 739.76 328.532 755.5 328.532 C 771.24 328.532 784 341.292 784 357.032 L 784 549.615 C 784 565.355 771.24 578.115 755.5 578.115 C 739.76 578.115 727 565.355 727 549.615 Z"
        fill="#f5e874"
        stroke-width="1"
        fill-rule="evenodd"/>
</svg>
