<svg
    xmlns="http://www.w3.org/2000/svg"
    viewBox="0 0 907 907"
    id="vector"
    width="907px"
    height="907px">
    <path
        id="path_1"
        d="M 274 340.961 C 274 325.221 286.76 312.461 302.5 312.461 C 318.24 312.461 331 325.221 331 340.961 L 331 566.039 C 331 581.779 318.24 594.539 302.5 594.539 C 286.76 594.539 274 581.779 274 566.039 Z M 350 265.324 C 350 249.86 362.536 237.324 378 237.324 C 393.464 237.324 406 249.86 406 265.324 L 406 641.676 C 406 657.14 393.464 669.676 378 669.676 C 362.536 669.676 350 657.14 350 641.676 Z M 425 320.176 C 425 304.436 437.76 291.676 453.5 291.676 C 469.24 291.676 482 304.436 482 320.176 L 482 586.824 C 482 602.564 469.24 615.324 453.5 615.324 C 437.76 615.324 425 602.564 425 586.824 Z M 198 303.81 C 198 288.078 210.754 275.324 226.487 275.324 C 242.219 275.324 254.973 288.078 254.973 303.81 L 254.973 603.19 C 254.973 617.84 243.537 629.817 229.26 630.527 C 228.55 631.237 227.57 631.676 226.487 631.676 C 210.754 631.676 198 618.922 198 603.19 Z M 123 396.039 C 123 380.299 135.76 367.539 151.5 367.539 C 167.24 367.539 180 380.299 180 396.039 L 180 510.961 C 180 526.701 167.24 539.461 151.5 539.461 C 135.76 539.461 123 526.701 123 510.961 Z M 501 302.461 C 501 286.997 513.536 274.461 529 274.461 C 544.464 274.461 557 286.997 557 302.461 L 557 603.676 C 557 619.14 544.464 631.676 529 631.676 C 513.536 631.676 501 619.14 501 603.676 Z M 576 227.824 C 576 212.084 588.76 199.324 604.5 199.324 C 620.241 199.324 633.001 212.084 633.001 227.824 L 633 679.039 C 633 693.696 621.557 705.681 607.274 706.391 C 606.564 707.1 605.583 707.539 604.5 707.539 C 588.76 707.539 576 694.779 576 679.039 Z M 652 340.961 C 652 325.221 664.76 312.461 680.5 312.461 C 696.24 312.461 709 325.221 709 340.961 L 709 566.039 C 709 581.779 696.24 594.539 680.5 594.539 C 664.76 594.539 652 581.779 652 566.039 Z M 727 396.039 C 727 380.299 739.76 367.539 755.5 367.539 C 771.24 367.539 784 380.299 784 396.039 L 784 510.961 C 784 526.701 771.24 539.461 755.5 539.461 C 739.76 539.461 727 526.701 727 510.961 Z"
        fill="#26b2db"
        stroke-width="1"
        fill-rule="evenodd"/>
</svg>
