<svg
    xmlns="http://www.w3.org/2000/svg"
    viewBox="0 0 907 907"
    id="vector"
    width="907px"
    height="907px">
    <path
        id="path_1"
        d="M 274 400.032 C 274 384.292 286.76 371.532 302.5 371.532 C 318.24 371.532 331 384.292 331 400.032 L 331 506.968 C 331 522.708 318.24 535.468 302.5 535.468 C 286.76 535.468 274 522.708 274 506.968 Z M 350 324.532 C 350 309.068 362.536 296.532 378 296.532 C 393.464 296.532 406 309.068 406 324.532 L 406 583.383 C 406 598.847 393.464 611.383 378 611.383 C 362.536 611.383 350 598.847 350 583.383 Z M 425 249.032 C 425 233.292 437.76 220.532 453.5 220.532 C 469.241 220.532 482.001 233.292 482.001 249.032 L 482 657.968 C 482 673.708 469.24 686.468 453.5 686.468 C 437.76 686.468 425 673.708 425 657.968 Z M 198 223.883 C 198 208.143 210.76 195.383 226.501 195.383 C 242.241 195.383 255.001 208.143 255.001 223.883 L 255.001 683.032 C 255.001 698.103 243.054 710.384 228.215 710.823 C 227.776 711.261 227.171 711.532 226.501 711.532 C 210.76 711.532 198 698.772 198 683.032 Z M 123 337.883 C 123 322.143 135.76 309.383 151.5 309.383 C 167.24 309.383 180 322.143 180 337.883 L 180 570.032 C 180 585.772 167.24 598.532 151.5 598.532 C 135.76 598.532 123 585.772 123 570.032 Z M 501 361.532 C 501 346.068 513.536 333.532 529 333.532 C 544.464 333.532 557 346.068 557 361.532 L 557 545.383 C 557 560.847 544.464 573.383 529 573.383 C 513.536 573.383 501 560.847 501 545.383 Z M 576 299.868 C 576 284.137 588.754 271.383 604.486 271.383 C 620.218 271.383 632.972 284.137 632.972 299.868 L 632.972 607.132 C 632.972 622.195 621.033 634.468 606.2 634.907 C 605.762 635.346 605.156 635.617 604.486 635.617 C 588.754 635.617 576 622.863 576 607.132 Z M 652 261.883 C 652 246.143 664.76 233.383 680.5 233.383 C 696.241 233.383 709.001 246.143 709.001 261.883 L 709 645.117 C 709 660.857 696.24 673.617 680.5 673.617 C 664.76 673.617 652 660.857 652 645.117 Z M 727 336.883 C 727 321.143 739.76 308.383 755.5 308.383 C 771.24 308.383 784 321.143 784 336.883 L 784 570.032 C 784 585.772 771.24 598.532 755.5 598.532 C 739.76 598.532 727 585.772 727 570.032 Z"
        fill="#e82f6d"
        stroke-width="1"
        fill-rule="evenodd"/>
</svg>
