<svg
    xmlns="http://www.w3.org/2000/svg"
    viewBox="0 0 907 907"
    id="vector"
    width="907px"
    height="907px">
    <path
        id="path_1"
        d="M 274 379.615 C 274 363.875 286.76 351.115 302.5 351.115 C 318.24 351.115 331 363.875 331 379.615 L 331 527.385 C 331 543.125 318.24 555.885 302.5 555.885 C 286.76 555.885 274 543.125 274 527.385 Z M 350 304.115 C 350 288.651 362.536 276.115 378 276.115 C 393.464 276.115 406 288.651 406 304.115 L 406 603.532 C 406 618.996 393.464 631.532 378 631.532 C 362.536 631.532 350 618.996 350 603.532 Z M 425 282.032 C 425 266.292 437.76 253.532 453.5 253.532 C 469.241 253.532 482.001 266.292 482.001 282.032 L 482 624.968 C 482 640.708 469.24 653.468 453.5 653.468 C 437.76 653.468 425 640.708 425 624.968 Z M 198 244.38 C 198 228.643 210.758 215.885 226.495 215.885 C 242.232 215.885 254.99 228.643 254.99 244.38 L 254.99 662.62 C 254.99 678.358 242.232 691.115 226.494 691.115 C 226.494 691.115 226.495 691.115 226.495 691.115 C 210.758 691.115 198 678.357 198 662.62 Z M 123 358.032 C 123 342.292 135.76 329.532 151.5 329.532 C 167.24 329.532 180 342.292 180 358.032 L 180 549.615 C 180 565.355 167.24 578.115 151.5 578.115 C 135.76 578.115 123 565.355 123 549.615 Z M 501 341.115 C 501 325.651 513.536 313.115 529 313.115 C 544.464 313.115 557 325.651 557 341.115 L 557 565.532 C 557 580.996 544.464 593.532 529 593.532 C 513.536 593.532 501 580.996 501 565.532 Z M 576 266.604 C 576 250.87 588.755 238.115 604.49 238.115 C 620.225 238.115 632.98 250.87 632.98 266.604 L 632.98 640.396 C 632.98 656.131 620.224 668.886 604.49 668.886 C 604.49 668.886 604.49 668.885 604.49 668.885 C 588.755 668.885 576 656.13 576 640.396 Z M 652 282.032 C 652 266.292 664.76 253.532 680.5 253.532 C 696.241 253.532 709.001 266.292 709.001 282.032 L 709 624.968 C 709 640.708 696.24 653.468 680.5 653.468 C 664.76 653.468 652 640.708 652 624.968 Z M 727 357.385 C 727 341.645 739.76 328.885 755.5 328.885 C 771.24 328.885 784 341.645 784 357.385 L 784 549.615 C 784 565.355 771.24 578.115 755.5 578.115 C 739.76 578.115 727 565.355 727 549.615 Z"
        fill="#984f96"
        stroke-width="1"
        fill-rule="evenodd"/>
</svg>
