<svg
    xmlns="http://www.w3.org/2000/svg"
    viewBox="0 0 907 907"
    id="vector"
    width="907px"
    height="907px">
    <path
        id="path_1"
        d="M 274 336.521 C 274 320.781 286.76 308.021 302.5 308.021 C 318.24 308.021 331 320.781 331 336.521 L 331 570.479 C 331 586.219 318.24 598.979 302.5 598.979 C 286.76 598.979 274 586.219 274 570.479 Z M 350 261.021 C 350 245.557 362.536 233.021 378 233.021 C 393.464 233.021 406 245.557 406 261.021 L 406 646.058 C 406 661.522 393.464 674.058 378 674.058 C 362.536 674.058 350 661.522 350 646.058 Z M 425 185.521 C 425 169.781 437.76 157.021 453.5 157.021 C 469.24 157.021 482 169.781 482 185.521 L 482 721.479 C 482 737.219 469.24 749.979 453.5 749.979 C 437.76 749.979 425 737.219 425 721.479 Z M 198 286.558 C 198 270.818 210.76 258.058 226.5 258.058 C 242.24 258.058 255 270.818 255 286.558 L 255 619.521 C 255 628.015 251.052 635.586 245.056 640.335 C 240.307 645.084 233.747 648.021 226.5 648.021 C 210.76 648.021 198 635.261 198 619.521 Z M 123 400.558 C 123 384.818 135.76 372.058 151.5 372.058 C 167.24 372.058 180 384.818 180 400.558 L 180 506.521 C 180 522.261 167.24 535.021 151.5 535.021 C 135.76 535.021 123 522.261 123 506.521 Z M 501 298.021 C 501 282.557 513.536 270.021 529 270.021 C 544.464 270.021 557 282.557 557 298.021 L 557 608.058 C 557 623.522 544.464 636.058 529 636.058 C 513.536 636.058 501 623.522 501 608.058 Z M 576 362.557 C 576 346.818 588.759 334.058 604.499 334.058 C 620.238 334.058 632.998 346.818 632.998 362.557 L 632.998 544.443 C 632.998 552.936 629.05 560.507 623.055 565.256 C 618.306 570.005 611.745 572.942 604.499 572.942 C 588.759 572.942 576 560.182 576 544.443 Z M 652 324.558 C 652 308.818 664.76 296.058 680.5 296.058 C 696.24 296.058 709 308.818 709 324.558 L 709 582.442 C 709 598.182 696.24 610.942 680.5 610.942 C 664.76 610.942 652 598.182 652 582.442 Z M 727 399.558 C 727 383.818 739.76 371.058 755.5 371.058 C 771.24 371.058 784 383.818 784 399.558 L 784 506.521 C 784 522.261 771.24 535.021 755.5 535.021 C 739.76 535.021 727 522.261 727 506.521 Z"
        fill="#e3d3d3"
        stroke-width="1"
        fill-rule="evenodd"/>
</svg>
