<svg
    xmlns="http://www.w3.org/2000/svg"
    viewBox="0 0 907 907"
    id="vector"
    width="907px"
    height="907px">
    <path
        id="path_1"
        d="M 274 333.588 C 274 317.848 286.76 305.088 302.5 305.088 C 318.24 305.088 331 317.848 331 333.588 L 331 573.412 C 331 589.152 318.24 601.912 302.5 601.912 C 286.76 601.912 274 589.152 274 573.412 Z M 350 258.047 C 350 242.583 362.536 230.047 378 230.047 C 393.464 230.047 406 242.583 406 258.047 L 406 648.953 C 406 664.417 393.464 676.953 378 676.953 C 362.536 676.953 350 664.417 350 648.953 Z M 425 327.453 C 425 311.713 437.76 298.953 453.5 298.953 C 469.24 298.953 482 311.713 482 327.453 L 482 579.547 C 482 595.287 469.24 608.047 453.5 608.047 C 437.76 608.047 425 595.287 425 579.547 Z M 198 296.532 C 198 280.801 210.753 268.047 226.486 268.047 C 242.217 268.047 254.97 280.801 254.97 296.532 L 254.97 610.468 C 254.97 625.88 242.606 638.404 227.304 638.613 C 227.094 638.823 226.805 638.953 226.486 638.953 C 210.753 638.953 198 626.199 198 610.468 Z M 123 403.412 C 123 387.672 135.76 374.912 151.5 374.912 C 167.24 374.912 180 387.672 180 403.412 L 180 503.588 C 180 519.328 167.24 532.088 151.5 532.088 C 135.76 532.088 123 519.328 123 503.588 Z M 501 295.088 C 501 279.624 513.536 267.088 529 267.088 C 544.464 267.088 557 279.624 557 295.088 L 557 610.953 C 557 626.417 544.464 638.953 529 638.953 C 513.536 638.953 501 626.417 501 610.953 Z M 576 220.547 C 576 204.807 588.76 192.047 604.5 192.047 C 620.241 192.047 633.001 204.807 633.001 220.547 L 633 686.412 C 633 701.833 620.629 714.364 605.319 714.574 C 605.109 714.783 604.82 714.912 604.5 714.912 C 588.76 714.912 576 702.152 576 686.412 Z M 652 333.588 C 652 317.848 664.76 305.088 680.5 305.088 C 696.24 305.088 709 317.848 709 333.588 L 709 573.412 C 709 589.152 696.24 601.912 680.5 601.912 C 664.76 601.912 652 589.152 652 573.412 Z M 727 403.412 C 727 387.672 739.76 374.912 755.5 374.912 C 771.24 374.912 784 387.672 784 403.412 L 784 503.588 C 784 519.328 771.24 532.088 755.5 532.088 C 739.76 532.088 727 519.328 727 503.588 Z"
        fill="#0dacec"
        stroke-width="1"
        fill-rule="evenodd"/>
</svg>
