<svg
    xmlns="http://www.w3.org/2000/svg"
    viewBox="0 0 907 907"
    id="vector"
    width="907px"
    height="907px">
    <path
        id="path_1"
        d="M 274 336.968 C 274 321.228 286.76 308.468 302.5 308.468 C 318.24 308.468 331 321.228 331 336.968 L 331 570.032 C 331 585.772 318.24 598.532 302.5 598.532 C 286.76 598.532 274 585.772 274 570.032 Z M 350 261.383 C 350 245.919 362.536 233.383 378 233.383 C 393.464 233.383 406 245.919 406 261.383 L 406 645.617 C 406 661.081 393.464 673.617 378 673.617 C 362.536 673.617 350 661.081 350 645.617 Z M 425 185.968 C 425 170.228 437.76 157.468 453.5 157.468 C 469.24 157.468 482 170.228 482 185.968 L 482 721.032 C 482 736.772 469.24 749.532 453.5 749.532 C 437.76 749.532 425 736.772 425 721.032 Z M 198 298.968 C 198 283.228 210.76 270.468 226.5 270.468 C 242.24 270.468 255 283.228 255 298.968 L 255 607.117 C 255 622.858 242.24 635.617 226.5 635.617 C 210.76 635.617 198 622.857 198 607.117 Z M 123 400.032 C 123 384.292 135.76 371.532 151.5 371.532 C 167.24 371.532 180 384.292 180 400.032 L 180 506.968 C 180 522.708 167.24 535.468 151.5 535.468 C 135.76 535.468 123 522.708 123 506.968 Z M 501 298.468 C 501 283.004 513.536 270.468 529 270.468 C 544.464 270.468 557 283.004 557 298.468 L 557 607.617 C 557 623.081 544.464 635.617 529 635.617 C 513.536 635.617 501 623.081 501 607.617 Z M 576 362.032 C 576 346.292 588.76 333.532 604.5 333.532 C 620.24 333.532 633 346.292 633 362.032 L 633 544.883 C 633 560.623 620.24 573.383 604.5 573.383 C 588.76 573.383 576 560.623 576 544.883 Z M 652 336.968 C 652 321.228 664.76 308.468 680.5 308.468 C 696.24 308.468 709 321.228 709 336.968 L 709 570.032 C 709 585.772 696.24 598.532 680.5 598.532 C 664.76 598.532 652 585.772 652 570.032 Z M 727 399.117 C 727 383.377 739.76 370.617 755.5 370.617 C 771.24 370.617 784 383.377 784 399.117 L 784 506.968 C 784 522.708 771.24 535.468 755.5 535.468 C 739.76 535.468 727 522.708 727 506.968 Z"
        fill="#e4e4cf"
        stroke-width="1"
        fill-rule="evenodd"/>
</svg>
