<svg
    xmlns="http://www.w3.org/2000/svg"
    viewBox="0 0 907 907"
    id="vector"
    width="907px"
    height="907px">
    <path
        id="path_1"
        d="M 274 406.206 C 274 390.466 286.76 377.706 302.5 377.706 C 318.24 377.706 331 390.466 331 406.206 L 331 500.794 C 331 516.534 318.24 529.294 302.5 529.294 C 286.76 529.294 274 516.534 274 500.794 Z M 350 330.706 C 350 315.242 362.536 302.706 378 302.706 C 393.464 302.706 406 315.242 406 330.706 L 406 577.29 C 406 592.754 393.464 605.29 378 605.29 C 362.536 605.29 350 592.754 350 577.29 Z M 425 255.79 C 425 240.05 437.76 227.29 453.5 227.29 C 469.241 227.29 482.001 240.05 482.001 255.79 L 482 651.21 C 482 666.95 469.24 679.71 453.5 679.71 C 437.76 679.71 425 666.95 425 651.21 Z M 198 217.794 C 198 202.054 210.76 189.294 226.501 189.294 C 242.241 189.294 255.001 202.054 255.001 217.794 L 255.001 689.206 C 255.001 704.947 242.24 717.707 226.5 717.707 C 226.5 717.707 226.501 717.706 226.501 717.706 C 210.76 717.706 198 704.946 198 689.206 Z M 123 331.79 C 123 316.05 135.76 303.29 151.5 303.29 C 167.24 303.29 180 316.05 180 331.79 L 180 576.206 C 180 591.946 167.24 604.706 151.5 604.706 C 135.76 604.706 123 591.946 123 576.206 Z M 501 367.706 C 501 352.242 513.536 339.706 529 339.706 C 544.464 339.706 557 352.242 557 367.706 L 557 539.29 C 557 554.754 544.464 567.29 529 567.29 C 513.536 567.29 501 554.754 501 539.29 Z M 576 293.19 C 576 277.459 588.753 264.706 604.485 264.706 C 620.216 264.706 632.969 277.459 632.969 293.19 L 632.969 613.81 C 632.969 629.542 620.216 642.294 604.484 642.294 C 604.484 642.294 604.485 642.294 604.485 642.294 C 588.753 642.294 576 629.541 576 613.81 Z M 652 255.79 C 652 240.05 664.76 227.29 680.5 227.29 C 696.241 227.29 709.001 240.05 709.001 255.79 L 709 651.21 C 709 666.95 696.24 679.71 680.5 679.71 C 664.76 679.71 652 666.95 652 651.21 Z M 727 330.794 C 727 315.054 739.76 302.294 755.5 302.294 C 771.24 302.294 784 315.054 784 330.794 L 784 576.206 C 784 591.946 771.24 604.706 755.5 604.706 C 739.76 604.706 727 591.946 727 576.206 Z"
        fill="#e81f64"
        stroke-width="1"
        fill-rule="evenodd"/>
</svg>
