<svg
    xmlns="http://www.w3.org/2000/svg"
    viewBox="0 0 907 907"
    id="vector"
    width="907px"
    height="907px">
    <path
        id="path_1"
        d="M 274 331.765 C 274 316.025 286.76 303.265 302.5 303.265 C 318.24 303.265 331 316.025 331 331.765 L 331 575.235 C 331 590.975 318.24 603.735 302.5 603.735 C 286.76 603.735 274 590.975 274 575.235 Z M 350 256.248 C 350 240.784 362.536 228.248 378 228.248 C 393.464 228.248 406 240.784 406 256.248 L 406 650.752 C 406 666.216 393.464 678.752 378 678.752 C 362.536 678.752 350 666.216 350 650.752 Z M 425 329.252 C 425 313.512 437.76 300.752 453.5 300.752 C 469.24 300.752 482 313.512 482 329.252 L 482 577.748 C 482 593.488 469.24 606.248 453.5 606.248 C 437.76 606.248 425 593.488 425 577.748 Z M 198 294.732 C 198 279.001 210.753 266.248 226.485 266.248 C 242.216 266.248 254.97 279.001 254.97 294.732 L 254.97 612.268 C 254.97 627.869 242.376 640.527 226.82 640.613 C 226.734 640.699 226.616 640.752 226.485 640.752 C 210.753 640.752 198 627.999 198 612.268 Z M 123 405.235 C 123 389.495 135.76 376.735 151.5 376.735 C 167.24 376.735 180 389.495 180 405.235 L 180 501.765 C 180 517.505 167.24 530.265 151.5 530.265 C 135.76 530.265 123 517.505 123 501.765 Z M 501 293.265 C 501 277.801 513.536 265.265 529 265.265 C 544.464 265.265 557 277.801 557 293.265 L 557 612.752 C 557 628.216 544.464 640.752 529 640.752 C 513.536 640.752 501 628.216 501 612.752 Z M 576 218.748 C 576 203.008 588.76 190.248 604.5 190.248 C 620.241 190.248 633.001 203.008 633.001 218.748 L 633 688.235 C 633 703.845 620.399 716.511 604.835 716.597 C 604.75 716.683 604.631 716.735 604.5 716.735 C 588.76 716.735 576 703.975 576 688.235 Z M 652 331.765 C 652 316.025 664.76 303.265 680.5 303.265 C 696.24 303.265 709 316.025 709 331.765 L 709 575.235 C 709 590.975 696.24 603.735 680.5 603.735 C 664.76 603.735 652 590.975 652 575.235 Z M 727 405.235 C 727 389.495 739.76 376.735 755.5 376.735 C 771.24 376.735 784 389.495 784 405.235 L 784 501.765 C 784 517.505 771.24 530.265 755.5 530.265 C 739.76 530.265 727 517.505 727 501.765 Z"
        fill="#07aaf1"
        stroke-width="1"
        fill-rule="evenodd"/>
</svg>
