<svg
    xmlns="http://www.w3.org/2000/svg"
    viewBox="0 0 907 907"
    id="vector"
    width="907px"
    height="907px">
    <path
        id="path_1"
        d="M 274 331.812 C 274 316.072 286.76 303.312 302.5 303.312 C 318.24 303.312 331 316.072 331 331.812 L 331 575.188 C 331 590.928 318.24 603.688 302.5 603.688 C 286.76 603.688 274 590.928 274 575.188 Z M 350 256.312 C 350 240.848 362.536 228.312 378 228.312 C 393.464 228.312 406 240.848 406 256.312 L 406 650.705 C 406 666.169 393.464 678.705 378 678.705 C 362.536 678.705 350 666.169 350 650.705 Z M 425 329.205 C 425 313.465 437.76 300.705 453.5 300.705 C 469.24 300.705 482 313.465 482 329.205 L 482 577.795 C 482 593.535 469.24 606.295 453.5 606.295 C 437.76 606.295 425 593.535 425 577.795 Z M 198 292.172 C 198 276.441 210.753 263.688 226.485 263.688 C 242.216 263.688 254.97 276.441 254.97 292.172 L 254.97 614.828 C 254.97 630.56 242.216 643.312 226.484 643.312 C 226.484 643.312 226.485 643.312 226.485 643.312 C 210.753 643.312 198 630.559 198 614.828 Z M 123 405.205 C 123 389.465 135.76 376.705 151.5 376.705 C 167.24 376.705 180 389.465 180 405.205 L 180 501.812 C 180 517.552 167.24 530.312 151.5 530.312 C 135.76 530.312 123 517.552 123 501.812 Z M 501 293.312 C 501 277.848 513.536 265.312 529 265.312 C 544.464 265.312 557 277.848 557 293.312 L 557 612.705 C 557 628.169 544.464 640.705 529 640.705 C 513.536 640.705 501 628.169 501 612.705 Z M 576 218.812 C 576 203.072 588.76 190.312 604.5 190.312 C 620.241 190.312 633 203.072 633 218.812 L 632.999 688.188 C 632.999 703.929 620.24 716.689 604.5 716.689 C 604.5 716.689 604.5 716.688 604.5 716.688 C 588.76 716.688 576 703.928 576 688.188 Z M 652 329.205 C 652 313.465 664.76 300.705 680.5 300.705 C 696.24 300.705 709 313.465 709 329.205 L 709 577.795 C 709 593.535 696.24 606.295 680.5 606.295 C 664.76 606.295 652 593.535 652 577.795 Z M 727 405.188 C 727 389.448 739.76 376.688 755.5 376.688 C 771.24 376.688 784 389.448 784 405.188 L 784 501.812 C 784 517.552 771.24 530.312 755.5 530.312 C 739.76 530.312 727 517.552 727 501.812 Z"
        fill="#07a7f1"
        stroke-width="1"
        fill-rule="evenodd"/>
</svg>
