<svg
    xmlns="http://www.w3.org/2000/svg"
    viewBox="0 0 907 907"
    id="vector"
    width="907px"
    height="907px">
    <path
        id="path_1"
        d="M 274 400.032 C 274 384.292 286.76 371.532 302.5 371.532 C 318.24 371.532 331 384.292 331 400.032 L 331 506.968 C 331 522.708 318.24 535.468 302.5 535.468 C 286.76 535.468 274 522.708 274 506.968 Z M 350 323.617 C 350 308.153 362.536 295.617 378 295.617 C 393.464 295.617 406 308.153 406 323.617 L 406 583.383 C 406 598.847 393.464 611.383 378 611.383 C 362.536 611.383 350 598.847 350 583.383 Z M 425 261.883 C 425 246.143 437.76 233.383 453.5 233.383 C 469.241 233.383 482.001 246.143 482.001 261.883 L 482 645.117 C 482 660.857 469.24 673.617 453.5 673.617 C 437.76 673.617 425 660.857 425 645.117 Z M 198 362.116 C 198 346.376 210.759 333.617 226.499 333.617 C 242.238 333.617 254.997 346.376 254.997 362.116 L 254.997 544.884 C 254.997 553.423 250.993 561.027 244.937 565.746 C 240.217 570.464 233.699 573.383 226.499 573.383 C 210.759 573.383 198 560.624 198 544.884 Z M 123 336.968 C 123 321.228 135.76 308.468 151.5 308.468 C 167.24 308.468 180 321.228 180 336.968 L 180 570.032 C 180 585.772 167.24 598.532 151.5 598.532 C 135.76 598.532 123 585.772 123 570.032 Z M 501 361.532 C 501 346.068 513.536 333.532 529 333.532 C 544.464 333.532 557 346.068 557 361.532 L 557 545.383 C 557 560.847 544.464 573.383 529 573.383 C 513.536 573.383 501 560.847 501 545.383 Z M 576 286.117 C 576 270.377 588.76 257.617 604.5 257.617 C 620.24 257.617 633 270.377 633 286.117 L 633 619.968 C 633 628.508 628.996 636.112 622.938 640.831 C 618.219 645.55 611.7 648.468 604.5 648.468 C 588.76 648.468 576 635.708 576 619.968 Z M 652 400.032 C 652 384.292 664.76 371.532 680.5 371.532 C 696.24 371.532 709 384.292 709 400.032 L 709 506.968 C 709 522.708 696.24 535.468 680.5 535.468 C 664.76 535.468 652 522.708 652 506.968 Z M 727 336.968 C 727 321.228 739.76 308.468 755.5 308.468 C 771.24 308.468 784 321.228 784 336.968 L 784 570.032 C 784 585.772 771.24 598.532 755.5 598.532 C 739.76 598.532 727 585.772 727 570.032 Z"
        fill="#eae54b"
        stroke-width="1"
        fill-rule="evenodd"/>
</svg>
