<svg
    xmlns="http://www.w3.org/2000/svg"
    viewBox="0 0 907 907"
    id="vector"
    width="907px"
    height="907px">
    <path
        id="path_1"
        d="M 274 340.961 C 274 325.221 286.76 312.461 302.5 312.461 C 318.24 312.461 331 325.221 331 340.961 L 331 566.039 C 331 581.779 318.24 594.539 302.5 594.539 C 286.76 594.539 274 581.779 274 566.039 Z M 350 265.461 C 350 249.997 362.536 237.461 378 237.461 C 393.464 237.461 406 249.997 406 265.461 L 406 641.676 C 406 657.14 393.464 669.676 378 669.676 C 362.536 669.676 350 657.14 350 641.676 Z M 425 189.961 C 425 174.221 437.76 161.461 453.5 161.461 C 469.24 161.461 482 174.221 482 189.961 L 482 717.039 C 482 732.779 469.24 745.539 453.5 745.539 C 437.76 745.539 425 732.779 425 717.039 Z M 198 282.176 C 198 266.436 210.76 253.676 226.5 253.676 C 242.24 253.676 255 266.436 255 282.176 L 255 623.961 C 255 632.915 250.493 640.815 243.879 645.263 C 239.431 649.711 233.287 652.461 226.5 652.461 C 210.76 652.461 198 639.701 198 623.961 Z M 123 396.176 C 123 380.436 135.76 367.676 151.5 367.676 C 167.24 367.676 180 380.436 180 396.176 L 180 510.961 C 180 526.701 167.24 539.461 151.5 539.461 C 135.76 539.461 123 526.701 123 510.961 Z M 501 302.461 C 501 286.997 513.536 274.461 529 274.461 C 544.464 274.461 557 286.997 557 302.461 L 557 603.676 C 557 619.14 544.464 631.676 529 631.676 C 513.536 631.676 501 619.14 501 603.676 Z M 576 358.174 C 576 342.435 588.759 329.676 604.498 329.676 C 620.237 329.676 632.996 342.435 632.996 358.174 L 632.996 548.826 C 632.996 557.778 628.489 565.678 621.877 570.126 C 617.429 574.573 611.285 577.324 604.498 577.324 C 588.759 577.324 576 564.565 576 548.826 Z M 652 320.176 C 652 304.436 664.76 291.676 680.5 291.676 C 696.24 291.676 709 304.436 709 320.176 L 709 586.824 C 709 602.564 696.24 615.324 680.5 615.324 C 664.76 615.324 652 602.564 652 586.824 Z M 727 395.176 C 727 379.436 739.76 366.676 755.5 366.676 C 771.24 366.676 784 379.436 784 395.176 L 784 510.961 C 784 526.701 771.24 539.461 755.5 539.461 C 739.76 539.461 727 526.701 727 510.961 Z"
        fill="#e3c8cc"
        stroke-width="1"
        fill-rule="evenodd"/>
</svg>
