<svg
    xmlns="http://www.w3.org/2000/svg"
    viewBox="0 0 907 907"
    id="vector"
    width="907px"
    height="907px">
    <path
        id="path_1"
        d="M 274 403.412 C 274 387.672 286.76 374.912 302.5 374.912 C 318.24 374.912 331 387.672 331 403.412 L 331 503.588 C 331 519.328 318.24 532.088 302.5 532.088 C 286.76 532.088 274 519.328 274 503.588 Z M 350 327.912 C 350 312.448 362.536 299.912 378 299.912 C 393.464 299.912 406 312.448 406 327.912 L 406 580.047 C 406 595.511 393.464 608.047 378 608.047 C 362.536 608.047 350 595.511 350 580.047 Z M 425 258.547 C 425 242.807 437.76 230.047 453.5 230.047 C 469.241 230.047 482.001 242.807 482.001 258.547 L 482 648.453 C 482 664.193 469.24 676.953 453.5 676.953 C 437.76 676.953 425 664.193 425 648.453 Z M 198 220.587 C 198 204.848 210.76 192.088 226.5 192.088 C 242.24 192.088 255 204.848 255 220.587 L 255 686.413 C 255 702.153 242.239 714.913 226.499 714.913 C 226.499 714.913 226.5 714.912 226.5 714.912 C 210.76 714.912 198 702.152 198 686.413 Z M 123 334.547 C 123 318.807 135.76 306.047 151.5 306.047 C 167.24 306.047 180 318.807 180 334.547 L 180 573.412 C 180 589.152 167.24 601.912 151.5 601.912 C 135.76 601.912 123 589.152 123 573.412 Z M 501 364.912 C 501 349.448 513.536 336.912 529 336.912 C 544.464 336.912 557 349.448 557 364.912 L 557 542.047 C 557 557.511 544.464 570.047 529 570.047 C 513.536 570.047 501 557.511 501 542.047 Z M 576 290.397 C 576 274.665 588.753 261.912 604.486 261.912 C 620.217 261.912 632.97 274.665 632.97 290.397 L 632.97 616.603 C 632.97 632.336 620.217 645.088 604.485 645.088 C 604.485 645.088 604.486 645.088 604.486 645.088 C 588.753 645.088 576 632.335 576 616.603 Z M 652 258.547 C 652 242.807 664.76 230.047 680.5 230.047 C 696.241 230.047 709.001 242.807 709.001 258.547 L 709 648.453 C 709 664.193 696.24 676.953 680.5 676.953 C 664.76 676.953 652 664.193 652 648.453 Z M 727 333.588 C 727 317.848 739.76 305.088 755.5 305.088 C 771.24 305.088 784 317.848 784 333.588 L 784 573.412 C 784 589.152 771.24 601.912 755.5 601.912 C 739.76 601.912 727 589.152 727 573.412 Z"
        fill="#e02469"
        stroke-width="1"
        fill-rule="evenodd"/>
</svg>
