<svg
    xmlns="http://www.w3.org/2000/svg"
    viewBox="0 0 907 907"
    id="vector"
    width="907px"
    height="907px">
    <path
        id="path_1"
        d="M 274 333.588 C 274 317.848 286.76 305.088 302.5 305.088 C 318.24 305.088 331 317.848 331 333.588 L 331 573.412 C 331 589.152 318.24 601.912 302.5 601.912 C 286.76 601.912 274 589.152 274 573.412 Z M 350 258.088 C 350 242.624 362.536 230.088 378 230.088 C 393.464 230.088 406 242.624 406 258.088 L 406 648.953 C 406 664.417 393.464 676.953 378 676.953 C 362.536 676.953 350 664.417 350 648.953 Z M 425 182.588 C 425 166.848 437.76 154.088 453.5 154.088 C 469.24 154.088 482 166.848 482 182.588 L 482 724.412 C 482 740.152 469.24 752.912 453.5 752.912 C 437.76 752.912 425 740.152 425 724.412 Z M 198 289.453 C 198 273.713 210.76 260.953 226.5 260.953 C 242.24 260.953 255 273.713 255 289.453 L 255 616.588 C 255 624.778 251.421 632.132 245.834 637.08 C 240.886 642.028 234.05 645.088 226.5 645.088 C 210.76 645.088 198 632.328 198 616.588 Z M 123 403.453 C 123 387.713 135.76 374.953 151.5 374.953 C 167.24 374.953 180 387.713 180 403.453 L 180 503.588 C 180 519.328 167.24 532.088 151.5 532.088 C 135.76 532.088 123 519.328 123 503.588 Z M 501 295.088 C 501 279.624 513.536 267.088 529 267.088 C 544.464 267.088 557 279.624 557 295.088 L 557 610.953 C 557 626.417 544.464 638.953 529 638.953 C 513.536 638.953 501 626.417 501 610.953 Z M 576 365.452 C 576 349.712 588.76 336.953 604.499 336.953 C 620.239 336.953 632.999 349.712 632.999 365.452 L 632.999 541.548 C 632.999 549.738 629.42 557.091 623.833 562.04 C 618.885 566.987 612.05 570.047 604.499 570.047 C 588.76 570.047 576 557.288 576 541.548 Z M 652 327.453 C 652 311.713 664.76 298.953 680.5 298.953 C 696.24 298.953 709 311.713 709 327.453 L 709 579.547 C 709 595.287 696.24 608.047 680.5 608.047 C 664.76 608.047 652 595.287 652 579.547 Z M 727 402.453 C 727 386.713 739.76 373.953 755.5 373.953 C 771.24 373.953 784 386.713 784 402.453 L 784 503.588 C 784 519.328 771.24 532.088 755.5 532.088 C 739.76 532.088 727 519.328 727 503.588 Z"
        fill="#e2dbd8"
        stroke-width="1"
        fill-rule="evenodd"/>
</svg>
