<svg
    xmlns="http://www.w3.org/2000/svg"
    viewBox="0 0 907 907"
    id="vector"
    width="907px"
    height="907px">
    <path
        id="path_1"
        d="M 274 331.812 C 274 316.072 286.76 303.312 302.5 303.312 C 318.24 303.312 331 316.072 331 331.812 L 331 575.188 C 331 590.928 318.24 603.688 302.5 603.688 C 286.76 603.688 274 590.928 274 575.188 Z M 350 256.295 C 350 240.831 362.536 228.295 378 228.295 C 393.464 228.295 406 240.831 406 256.295 L 406 650.705 C 406 666.169 393.464 678.705 378 678.705 C 362.536 678.705 350 666.169 350 650.705 Z M 425 180.812 C 425 165.072 437.76 152.312 453.5 152.312 C 469.24 152.312 482 165.072 482 180.812 L 482 726.188 C 482 741.928 469.24 754.688 453.5 754.688 C 437.76 754.688 425 741.928 425 726.188 Z M 198 293.812 C 198 278.072 210.76 265.312 226.5 265.312 C 242.24 265.312 255 278.072 255 293.812 L 255 612.205 C 255 627.946 242.24 640.705 226.5 640.705 C 210.76 640.705 198 627.945 198 612.205 Z M 123 405.188 C 123 389.448 135.76 376.688 151.5 376.688 C 167.24 376.688 180 389.448 180 405.188 L 180 501.812 C 180 517.552 167.24 530.312 151.5 530.312 C 135.76 530.312 123 517.552 123 501.812 Z M 501 293.312 C 501 277.848 513.536 265.312 529 265.312 C 544.464 265.312 557 277.848 557 293.312 L 557 612.705 C 557 628.169 544.464 640.705 529 640.705 C 513.536 640.705 501 628.169 501 612.705 Z M 576 367.188 C 576 351.448 588.76 338.688 604.5 338.688 C 620.24 338.688 633 351.448 633 367.188 L 633 539.795 C 633 555.535 620.24 568.295 604.5 568.295 C 588.76 568.295 576 555.535 576 539.795 Z M 652 331.812 C 652 316.072 664.76 303.312 680.5 303.312 C 696.24 303.312 709 316.072 709 331.812 L 709 575.188 C 709 590.928 696.24 603.688 680.5 603.688 C 664.76 603.688 652 590.928 652 575.188 Z M 727 404.205 C 727 388.465 739.76 375.705 755.5 375.705 C 771.24 375.705 784 388.465 784 404.205 L 784 501.812 C 784 517.552 771.24 530.312 755.5 530.312 C 739.76 530.312 727 517.552 727 501.812 Z"
        fill="#e3e3da"
        stroke-width="1"
        fill-rule="evenodd"/>
</svg>
