<svg
    xmlns="http://www.w3.org/2000/svg"
    viewBox="0 0 907 907"
    id="vector"
    width="907px"
    height="907px">
    <path
        id="path_1"
        d="M 274 348.481 C 274 332.741 286.76 319.981 302.5 319.981 C 318.24 319.981 331 332.741 331 348.481 L 331 558.519 C 331 574.259 318.24 587.019 302.5 587.019 C 286.76 587.019 274 574.259 274 558.519 Z M 350 272.744 C 350 257.28 362.536 244.744 378 244.744 C 393.464 244.744 406 257.28 406 272.744 L 406 634.256 C 406 649.72 393.464 662.256 378 662.256 C 362.536 662.256 350 649.72 350 634.256 Z M 425 197.481 C 425 181.741 437.76 168.981 453.5 168.981 C 469.24 168.981 482 181.741 482 197.481 L 482 709.519 C 482 725.259 469.24 738.019 453.5 738.019 C 437.76 738.019 425 725.259 425 709.519 Z M 198 310.481 C 198 294.741 210.76 281.981 226.5 281.981 C 242.24 281.981 255 294.741 255 310.481 L 255 595.756 C 255 611.497 242.24 624.256 226.5 624.256 C 210.76 624.256 198 611.496 198 595.756 Z M 123 388.519 C 123 372.779 135.76 360.019 151.5 360.019 C 167.24 360.019 180 372.779 180 388.519 L 180 518.481 C 180 534.221 167.24 546.981 151.5 546.981 C 135.76 546.981 123 534.221 123 518.481 Z M 501 309.981 C 501 294.517 513.536 281.981 529 281.981 C 544.464 281.981 557 294.517 557 309.981 L 557 596.256 C 557 611.72 544.464 624.256 529 624.256 C 513.536 624.256 501 611.72 501 596.256 Z M 576 350.519 C 576 334.779 588.76 322.019 604.5 322.019 C 620.24 322.019 633 334.779 633 350.519 L 633 556.244 C 633 571.984 620.24 584.744 604.5 584.744 C 588.76 584.744 576 571.984 576 556.244 Z M 652 348.481 C 652 332.741 664.76 319.981 680.5 319.981 C 696.24 319.981 709 332.741 709 348.481 L 709 558.519 C 709 574.259 696.24 587.019 680.5 587.019 C 664.76 587.019 652 574.259 652 558.519 Z M 727 387.756 C 727 372.016 739.76 359.256 755.5 359.256 C 771.24 359.256 784 372.016 784 387.756 L 784 518.481 C 784 534.221 771.24 546.981 755.5 546.981 C 739.76 546.981 727 534.221 727 518.481 Z"
        fill="#e9e5b7"
        stroke-width="1"
        fill-rule="evenodd"/>
</svg>
