<svg
    xmlns="http://www.w3.org/2000/svg"
    viewBox="0 0 907 907"
    id="vector"
    width="907px"
    height="907px">
    <path
        id="path_1"
        d="M 274 389.443 C 274 373.703 286.76 360.943 302.5 360.943 C 318.24 360.943 331 373.703 331 389.443 L 331 517.557 C 331 533.297 318.24 546.057 302.5 546.057 C 286.76 546.057 274 533.297 274 517.557 Z M 350 313.167 C 350 297.703 362.536 285.167 378 285.167 C 393.464 285.167 406 297.703 406 313.167 L 406 593.833 C 406 609.297 393.464 621.833 378 621.833 C 362.536 621.833 350 609.297 350 593.833 Z M 425 238.443 C 425 222.703 437.76 209.943 453.5 209.943 C 469.241 209.943 482.001 222.703 482.001 238.443 L 482 668.557 C 482 684.297 469.24 697.057 453.5 697.057 C 437.76 697.057 425 684.297 425 668.557 Z M 198 351.443 C 198 335.703 210.76 322.943 226.5 322.943 C 242.24 322.943 255 335.703 255 351.443 L 255 555.333 C 255 571.073 242.24 583.833 226.5 583.833 C 210.76 583.833 198 571.073 198 555.333 Z M 123 347.557 C 123 331.817 135.76 319.057 151.5 319.057 C 167.24 319.057 180 331.817 180 347.557 L 180 559.443 C 180 575.183 167.24 587.943 151.5 587.943 C 135.76 587.943 123 575.183 123 559.443 Z M 501 350.943 C 501 335.479 513.536 322.943 529 322.943 C 544.464 322.943 557 335.479 557 350.943 L 557 555.833 C 557 571.297 544.464 583.833 529 583.833 C 513.536 583.833 501 571.297 501 555.833 Z M 576 309.557 C 576 293.817 588.76 281.057 604.5 281.057 C 620.24 281.057 633 293.817 633 309.557 L 633 596.667 C 633 612.408 620.24 625.167 604.5 625.167 C 588.76 625.167 576 612.407 576 596.667 Z M 652 389.443 C 652 373.703 664.76 360.943 680.5 360.943 C 696.24 360.943 709 373.703 709 389.443 L 709 517.557 C 709 533.297 696.24 546.057 680.5 546.057 C 664.76 546.057 652 533.297 652 517.557 Z M 727 347.333 C 727 331.593 739.76 318.833 755.5 318.833 C 771.24 318.833 784 331.593 784 347.333 L 784 559.443 C 784 575.183 771.24 587.943 755.5 587.943 C 739.76 587.943 727 575.183 727 559.443 Z"
        fill="#f8e95f"
        stroke-width="1"
        fill-rule="evenodd"/>
</svg>
