<svg
    xmlns="http://www.w3.org/2000/svg"
    viewBox="0 0 907 907"
    id="vector"
    width="907px"
    height="907px">
    <path
        id="path_1"
        d="M 274 357.385 C 274 341.645 286.76 328.885 302.5 328.885 C 318.24 328.885 331 341.645 331 357.385 L 331 549.615 C 331 565.355 318.24 578.115 302.5 578.115 C 286.76 578.115 274 565.355 274 549.615 Z M 350 281.885 C 350 266.421 362.536 253.885 378 253.885 C 393.464 253.885 406 266.421 406 281.885 L 406 625.468 C 406 640.932 393.464 653.468 378 653.468 C 362.536 653.468 350 640.932 350 625.468 Z M 425 206.385 C 425 190.645 437.76 177.885 453.5 177.885 C 469.24 177.885 482 190.645 482 206.385 L 482 700.615 C 482 716.355 469.24 729.115 453.5 729.115 C 437.76 729.115 425 716.355 425 700.615 Z M 198 265.968 C 198 250.228 210.76 237.468 226.5 237.468 C 242.24 237.468 255 250.228 255 265.968 L 255 640.385 C 255 651.04 248.425 660.158 239.524 663.491 C 236.19 666.824 231.586 668.885 226.5 668.885 C 210.76 668.885 198 656.125 198 640.385 Z M 123 379.968 C 123 364.228 135.76 351.468 151.5 351.468 C 167.24 351.468 180 364.228 180 379.968 L 180 527.385 C 180 543.125 167.24 555.885 151.5 555.885 C 135.76 555.885 123 543.125 123 527.385 Z M 501 318.885 C 501 303.421 513.536 290.885 529 290.885 C 544.464 290.885 557 303.421 557 318.885 L 557 587.468 C 557 602.932 544.464 615.468 529 615.468 C 513.536 615.468 501 602.932 501 587.468 Z M 576 341.963 C 576 326.226 588.758 313.468 604.495 313.468 C 620.232 313.468 632.989 326.226 632.989 341.963 L 632.989 565.037 C 632.989 575.688 626.416 584.804 617.518 588.137 C 614.185 591.47 609.581 593.532 604.495 593.532 C 588.758 593.532 576 580.774 576 565.037 Z M 652 303.968 C 652 288.228 664.76 275.468 680.5 275.468 C 696.24 275.468 709 288.228 709 303.968 L 709 603.032 C 709 618.772 696.24 631.532 680.5 631.532 C 664.76 631.532 652 618.772 652 603.032 Z M 727 378.968 C 727 363.228 739.76 350.468 755.5 350.468 C 771.24 350.468 784 363.228 784 378.968 L 784 527.385 C 784 543.125 771.24 555.885 755.5 555.885 C 739.76 555.885 727 543.125 727 527.385 Z"
        fill="#e49db2"
        stroke-width="1"
        fill-rule="evenodd"/>
</svg>
