<svg
    xmlns="http://www.w3.org/2000/svg"
    viewBox="0 0 907 907"
    id="vector"
    width="907px"
    height="907px">
    <path
        id="path_1"
        d="M 274 365.251 C 274 349.511 286.76 336.751 302.5 336.751 C 318.24 336.751 331 349.511 331 365.251 L 331 541.749 C 331 557.489 318.24 570.249 302.5 570.249 C 286.76 570.249 274 557.489 274 541.749 Z M 350 289.751 C 350 274.287 362.536 261.751 378 261.751 C 393.464 261.751 406 274.287 406 289.751 L 406 617.706 C 406 633.17 393.464 645.706 378 645.706 C 362.536 645.706 350 633.17 350 617.706 Z M 425 296.206 C 425 280.466 437.76 267.706 453.5 267.706 C 469.24 267.706 482 280.466 482 296.206 L 482 610.794 C 482 626.534 469.24 639.294 453.5 639.294 C 437.76 639.294 425 626.534 425 610.794 Z M 198 258.74 C 198 243.005 210.756 230.249 226.492 230.249 C 242.227 230.249 254.984 243.005 254.984 258.74 L 254.984 648.26 C 254.984 663.996 242.227 676.752 226.491 676.752 C 226.491 676.752 226.492 676.751 226.492 676.751 C 210.756 676.751 198 663.995 198 648.26 Z M 123 372.206 C 123 356.466 135.76 343.706 151.5 343.706 C 167.24 343.706 180 356.466 180 372.206 L 180 535.251 C 180 550.991 167.24 563.751 151.5 563.751 C 135.76 563.751 123 550.991 123 535.251 Z M 501 326.751 C 501 311.287 513.536 298.751 529 298.751 C 544.464 298.751 557 311.287 557 326.751 L 557 579.706 C 557 595.17 544.464 607.706 529 607.706 C 513.536 607.706 501 595.17 501 579.706 Z M 576 252.244 C 576 236.508 588.757 223.751 604.493 223.751 C 620.23 223.751 632.986 236.508 632.986 252.244 L 632.986 654.756 C 632.986 670.493 620.229 683.249 604.493 683.249 C 604.493 683.249 604.493 683.249 604.493 683.249 C 588.757 683.249 576 670.492 576 654.756 Z M 652 296.206 C 652 280.466 664.76 267.706 680.5 267.706 C 696.24 267.706 709 280.466 709 296.206 L 709 610.794 C 709 626.534 696.24 639.294 680.5 639.294 C 664.76 639.294 652 626.534 652 610.794 Z M 727 371.749 C 727 356.009 739.76 343.249 755.5 343.249 C 771.24 343.249 784 356.009 784 371.749 L 784 535.251 C 784 550.991 771.24 563.751 755.5 563.751 C 739.76 563.751 727 550.991 727 535.251 Z"
        fill="#6c69b2"
        stroke-width="1"
        fill-rule="evenodd"/>
</svg>
