<svg
    xmlns="http://www.w3.org/2000/svg"
    viewBox="0 0 907 907"
    id="vector"
    width="907px"
    height="907px">
    <path
        id="path_1"
        d="M 274 403.412 C 274 387.672 286.76 374.912 302.5 374.912 C 318.24 374.912 331 387.672 331 403.412 L 331 503.588 C 331 519.328 318.24 532.088 302.5 532.088 C 286.76 532.088 274 519.328 274 503.588 Z M 350 326.953 C 350 311.489 362.536 298.953 378 298.953 C 393.464 298.953 406 311.489 406 326.953 L 406 580.047 C 406 595.511 393.464 608.047 378 608.047 C 362.536 608.047 350 595.511 350 580.047 Z M 425 252.412 C 425 236.672 437.76 223.912 453.5 223.912 C 469.241 223.912 482.001 236.672 482.001 252.412 L 482 654.588 C 482 670.328 469.24 683.088 453.5 683.088 C 437.76 683.088 425 670.328 425 654.588 Z M 198 365.412 C 198 349.672 210.76 336.912 226.5 336.912 C 242.24 336.912 255 349.672 255 365.412 L 255 541.547 C 255 557.287 242.24 570.047 226.5 570.047 C 210.76 570.047 198 557.287 198 541.547 Z M 123 333.588 C 123 317.848 135.76 305.088 151.5 305.088 C 167.24 305.088 180 317.848 180 333.588 L 180 573.412 C 180 589.152 167.24 601.912 151.5 601.912 C 135.76 601.912 123 589.152 123 573.412 Z M 501 364.912 C 501 349.448 513.536 336.912 529 336.912 C 544.464 336.912 557 349.448 557 364.912 L 557 542.047 C 557 557.511 544.464 570.047 529 570.047 C 513.536 570.047 501 557.511 501 542.047 Z M 576 295.588 C 576 279.848 588.76 267.088 604.5 267.088 C 620.24 267.088 633 279.848 633 295.588 L 633 610.453 C 633 626.194 620.24 638.953 604.5 638.953 C 588.76 638.953 576 626.193 576 610.453 Z M 652 403.412 C 652 387.672 664.76 374.912 680.5 374.912 C 696.24 374.912 709 387.672 709 403.412 L 709 503.588 C 709 519.328 696.24 532.088 680.5 532.088 C 664.76 532.088 652 519.328 652 503.588 Z M 727 333.547 C 727 317.807 739.76 305.047 755.5 305.047 C 771.24 305.047 784 317.807 784 333.547 L 784 573.412 C 784 589.152 771.24 601.912 755.5 601.912 C 739.76 601.912 727 589.152 727 573.412 Z"
        fill="#feeb42"
        stroke-width="1"
        fill-rule="evenodd"/>
</svg>
