<svg
    xmlns="http://www.w3.org/2000/svg"
    viewBox="0 0 907 907"
    id="vector"
    width="907px"
    height="907px">
    <path
        id="path_1"
        d="M 274 405.235 C 274 389.495 286.76 376.735 302.5 376.735 C 318.24 376.735 331 389.495 331 405.235 L 331 501.765 C 331 517.505 318.24 530.265 302.5 530.265 C 286.76 530.265 274 517.505 274 501.765 Z M 350 329.735 C 350 314.271 362.536 301.735 378 301.735 C 393.464 301.735 406 314.271 406 329.735 L 406 578.248 C 406 593.712 393.464 606.248 378 606.248 C 362.536 606.248 350 593.712 350 578.248 Z M 425 256.748 C 425 241.008 437.76 228.248 453.5 228.248 C 469.241 228.248 482.001 241.008 482.001 256.748 L 482 650.252 C 482 665.992 469.24 678.752 453.5 678.752 C 437.76 678.752 425 665.992 425 650.252 Z M 198 218.764 C 198 203.025 210.76 190.265 226.501 190.265 C 242.241 190.265 255 203.025 255 218.764 L 255 688.236 C 255 703.976 242.24 716.736 226.5 716.736 C 226.5 716.736 226.501 716.735 226.501 716.735 C 210.76 716.735 198 703.975 198 688.236 Z M 123 332.748 C 123 317.008 135.76 304.248 151.5 304.248 C 167.24 304.248 180 317.008 180 332.748 L 180 575.235 C 180 590.975 167.24 603.735 151.5 603.735 C 135.76 603.735 123 590.975 123 575.235 Z M 501 366.735 C 501 351.271 513.536 338.735 529 338.735 C 544.464 338.735 557 351.271 557 366.735 L 557 540.248 C 557 555.712 544.464 568.248 529 568.248 C 513.536 568.248 501 555.712 501 540.248 Z M 576 292.22 C 576 276.488 588.753 263.735 604.485 263.735 C 620.216 263.735 632.97 276.488 632.97 292.22 L 632.97 614.78 C 632.97 630.513 620.216 643.265 604.484 643.265 C 604.484 643.265 604.485 643.265 604.485 643.265 C 588.753 643.265 576 630.512 576 614.78 Z M 652 256.748 C 652 241.008 664.76 228.248 680.5 228.248 C 696.241 228.248 709.001 241.008 709.001 256.748 L 709 650.252 C 709 665.992 696.24 678.752 680.5 678.752 C 664.76 678.752 652 665.992 652 650.252 Z M 727 331.765 C 727 316.025 739.76 303.265 755.5 303.265 C 771.24 303.265 784 316.025 784 331.765 L 784 575.235 C 784 590.975 771.24 603.735 755.5 603.735 C 739.76 603.735 727 590.975 727 575.235 Z"
        fill="#e52065"
        stroke-width="1"
        fill-rule="evenodd"/>
</svg>
