<svg
    xmlns="http://www.w3.org/2000/svg"
    viewBox="0 0 907 907"
    id="vector"
    width="907px"
    height="907px">
    <path
        id="path_1"
        d="M 274 336.968 C 274 321.228 286.76 308.468 302.5 308.468 C 318.24 308.468 331 321.228 331 336.968 L 331 570.032 C 331 585.772 318.24 598.532 302.5 598.532 C 286.76 598.532 274 585.772 274 570.032 Z M 350 261.468 C 350 246.004 362.536 233.468 378 233.468 C 393.464 233.468 406 246.004 406 261.468 L 406 645.617 C 406 661.081 393.464 673.617 378 673.617 C 362.536 673.617 350 661.081 350 645.617 Z M 425 324.117 C 425 308.377 437.76 295.617 453.5 295.617 C 469.24 295.617 482 308.377 482 324.117 L 482 582.883 C 482 598.623 469.24 611.383 453.5 611.383 C 437.76 611.383 425 598.623 425 582.883 Z M 198 287.017 C 198 271.286 210.754 258.532 226.486 258.532 C 242.218 258.532 254.972 271.286 254.972 287.017 L 254.972 619.983 C 254.972 635.715 242.218 648.468 226.485 648.468 C 226.485 648.468 226.486 648.468 226.486 648.468 C 210.754 648.468 198 635.714 198 619.983 Z M 123 400.117 C 123 384.377 135.76 371.617 151.5 371.617 C 167.24 371.617 180 384.377 180 400.117 L 180 506.968 C 180 522.708 167.24 535.468 151.5 535.468 C 135.76 535.468 123 522.708 123 506.968 Z M 501 298.468 C 501 283.004 513.536 270.468 529 270.468 C 544.464 270.468 557 283.004 557 298.468 L 557 607.617 C 557 623.081 544.464 635.617 529 635.617 C 513.536 635.617 501 623.081 501 607.617 Z M 576 223.967 C 576 208.227 588.759 195.468 604.499 195.468 C 620.239 195.468 632.998 208.227 632.998 223.967 L 632.997 683.033 C 632.997 698.774 620.238 711.533 604.499 711.533 C 604.499 711.533 604.499 711.532 604.499 711.532 C 588.759 711.532 576 698.773 576 683.033 Z M 652 324.117 C 652 308.377 664.76 295.617 680.5 295.617 C 696.24 295.617 709 308.377 709 324.117 L 709 582.883 C 709 598.623 696.24 611.383 680.5 611.383 C 664.76 611.383 652 598.623 652 582.883 Z M 727 400.032 C 727 384.292 739.76 371.532 755.5 371.532 C 771.24 371.532 784 384.292 784 400.032 L 784 506.968 C 784 522.708 771.24 535.468 755.5 535.468 C 739.76 535.468 727 522.708 727 506.968 Z"
        fill="#179de8"
        stroke-width="1"
        fill-rule="evenodd"/>
</svg>
