<svg
    xmlns="http://www.w3.org/2000/svg"
    viewBox="0 0 907 907"
    id="vector"
    width="907px"
    height="907px">
    <path
        id="path_1"
        d="M 274 330.794 C 274 315.054 286.76 302.294 302.5 302.294 C 318.24 302.294 331 315.054 331 330.794 L 331 576.206 C 331 591.946 318.24 604.706 302.5 604.706 C 286.76 604.706 274 591.946 274 576.206 Z M 350 255.29 C 350 239.826 362.536 227.29 378 227.29 C 393.464 227.29 406 239.826 406 255.29 L 406 651.71 C 406 667.174 393.464 679.71 378 679.71 C 362.536 679.71 350 667.174 350 651.71 Z M 425 330.21 C 425 314.47 437.76 301.71 453.5 301.71 C 469.24 301.71 482 314.47 482 330.21 L 482 576.79 C 482 592.53 469.24 605.29 453.5 605.29 C 437.76 605.29 425 592.53 425 576.79 Z M 198 293.774 C 198 278.043 210.753 265.29 226.485 265.29 C 242.216 265.29 254.969 278.043 254.969 293.774 L 254.969 613.226 C 254.969 628.928 242.253 641.658 226.562 641.678 C 226.542 641.698 226.515 641.71 226.485 641.71 C 210.753 641.71 198 628.957 198 613.226 Z M 123 406.206 C 123 390.466 135.76 377.706 151.5 377.706 C 167.24 377.706 180 390.466 180 406.206 L 180 500.794 C 180 516.534 167.24 529.294 151.5 529.294 C 135.76 529.294 123 516.534 123 500.794 Z M 501 292.294 C 501 276.83 513.536 264.294 529 264.294 C 544.464 264.294 557 276.83 557 292.294 L 557 613.71 C 557 629.174 544.464 641.71 529 641.71 C 513.536 641.71 501 629.174 501 613.71 Z M 576 217.79 C 576 202.05 588.76 189.29 604.5 189.29 C 620.241 189.29 633.001 202.05 633.001 217.79 L 633 689.206 C 633 704.917 620.277 717.655 604.578 717.675 C 604.558 717.695 604.53 717.706 604.5 717.706 C 588.76 717.706 576 704.946 576 689.206 Z M 652 330.794 C 652 315.054 664.76 302.294 680.5 302.294 C 696.24 302.294 709 315.054 709 330.794 L 709 576.206 C 709 591.946 696.24 604.706 680.5 604.706 C 664.76 604.706 652 591.946 652 576.206 Z M 727 406.206 C 727 390.466 739.76 377.706 755.5 377.706 C 771.24 377.706 784 390.466 784 406.206 L 784 500.794 C 784 516.534 771.24 529.294 755.5 529.294 C 739.76 529.294 727 516.534 727 500.794 Z"
        fill="#04a9f3"
        stroke-width="1"
        fill-rule="evenodd"/>
</svg>
