<svg
    xmlns="http://www.w3.org/2000/svg"
    viewBox="0 0 907 907"
    id="vector"
    width="907px"
    height="907px">
    <path
        id="path_1"
        d="M 274 405.188 C 274 389.448 286.76 376.688 302.5 376.688 C 318.24 376.688 331 389.448 331 405.188 L 331 501.812 C 331 517.552 318.24 530.312 302.5 530.312 C 286.76 530.312 274 517.552 274 501.812 Z M 350 329.688 C 350 314.224 362.536 301.688 378 301.688 C 393.464 301.688 406 314.224 406 329.688 L 406 578.295 C 406 593.759 393.464 606.295 378 606.295 C 362.536 606.295 350 593.759 350 578.295 Z M 425 254.188 C 425 238.448 437.76 225.688 453.5 225.688 C 469.241 225.688 482.001 238.448 482.001 254.188 L 482 652.812 C 482 668.552 469.24 681.312 453.5 681.312 C 437.76 681.312 425 668.552 425 652.812 Z M 198 218.795 C 198 203.055 210.76 190.295 226.501 190.295 C 242.241 190.295 255.001 203.055 255.001 218.795 L 255.001 688.188 C 255.001 703.793 242.405 716.455 226.848 716.544 C 226.759 716.633 226.637 716.688 226.501 716.688 C 210.76 716.688 198 703.928 198 688.188 Z M 123 332.795 C 123 317.055 135.76 304.295 151.5 304.295 C 167.24 304.295 180 317.055 180 332.795 L 180 575.188 C 180 590.928 167.24 603.688 151.5 603.688 C 135.76 603.688 123 590.928 123 575.188 Z M 501 366.688 C 501 351.224 513.536 338.688 529 338.688 C 544.464 338.688 557 351.224 557 366.688 L 557 540.295 C 557 555.759 544.464 568.295 529 568.295 C 513.536 568.295 501 555.759 501 540.295 Z M 576 294.779 C 576 279.048 588.753 266.295 604.485 266.295 C 620.216 266.295 632.97 279.048 632.97 294.779 L 632.97 612.221 C 632.97 627.817 620.382 640.472 604.832 640.561 C 604.743 640.65 604.621 640.705 604.485 640.705 C 588.753 640.705 576 627.952 576 612.221 Z M 652 256.795 C 652 241.055 664.76 228.295 680.5 228.295 C 696.241 228.295 709.001 241.055 709.001 256.795 L 709 650.205 C 709 665.945 696.24 678.705 680.5 678.705 C 664.76 678.705 652 665.945 652 650.205 Z M 727 331.795 C 727 316.055 739.76 303.295 755.5 303.295 C 771.24 303.295 784 316.055 784 331.795 L 784 575.188 C 784 590.928 771.24 603.688 755.5 603.688 C 739.76 603.688 727 590.928 727 575.188 Z"
        fill="#e92165"
        stroke-width="1"
        fill-rule="evenodd"/>
</svg>
