<svg
    xmlns="http://www.w3.org/2000/svg"
    viewBox="0 0 907 907"
    id="vector"
    width="907px"
    height="907px">
    <path
        id="path_1"
        d="M 274 336.521 C 274 320.781 286.76 308.021 302.5 308.021 C 318.24 308.021 331 320.781 331 336.521 L 331 570.479 C 331 586.219 318.24 598.979 302.5 598.979 C 286.76 598.979 274 586.219 274 570.479 Z M 350 260.942 C 350 245.478 362.536 232.942 378 232.942 C 393.464 232.942 406 245.478 406 260.942 L 406 646.058 C 406 661.522 393.464 674.058 378 674.058 C 362.536 674.058 350 661.522 350 646.058 Z M 425 324.558 C 425 308.818 437.76 296.058 453.5 296.058 C 469.24 296.058 482 308.818 482 324.558 L 482 582.442 C 482 598.182 469.24 610.942 453.5 610.942 C 437.76 610.942 425 598.182 425 582.442 Z M 198 299.427 C 198 283.695 210.754 270.942 226.486 270.942 C 242.218 270.942 254.971 283.695 254.971 299.427 L 254.971 607.573 C 254.971 622.682 242.976 634.988 228.082 635.397 C 227.673 635.805 227.11 636.058 226.486 636.058 C 210.754 636.058 198 623.305 198 607.573 Z M 123 400.479 C 123 384.739 135.76 371.979 151.5 371.979 C 167.24 371.979 180 384.739 180 400.479 L 180 506.521 C 180 522.261 167.24 535.021 151.5 535.021 C 135.76 535.021 123 522.261 123 506.521 Z M 501 298.021 C 501 282.557 513.536 270.021 529 270.021 C 544.464 270.021 557 282.557 557 298.021 L 557 608.058 C 557 623.522 544.464 636.058 529 636.058 C 513.536 636.058 501 623.522 501 608.058 Z M 576 223.442 C 576 207.702 588.76 194.942 604.5 194.942 C 620.241 194.942 633.001 207.702 633.001 223.442 L 633 683.479 C 633 698.596 620.998 710.91 606.097 711.319 C 605.688 711.727 605.123 711.979 604.5 711.979 C 588.76 711.979 576 699.219 576 683.479 Z M 652 336.521 C 652 320.781 664.76 308.021 680.5 308.021 C 696.24 308.021 709 320.781 709 336.521 L 709 570.479 C 709 586.219 696.24 598.979 680.5 598.979 C 664.76 598.979 652 586.219 652 570.479 Z M 727 400.479 C 727 384.739 739.76 371.979 755.5 371.979 C 771.24 371.979 784 384.739 784 400.479 L 784 506.521 C 784 522.261 771.24 535.021 755.5 535.021 C 739.76 535.021 727 522.261 727 506.521 Z"
        fill="#17aee5"
        stroke-width="1"
        fill-rule="evenodd"/>
</svg>
