<svg
    xmlns="http://www.w3.org/2000/svg"
    viewBox="0 0 907 907"
    id="vector"
    width="907px"
    height="907px">
    <path
        id="path_1"
        d="M 274 406.5 C 274 390.76 286.76 378 302.5 378 C 318.24 378 331 390.76 331 406.5 L 331 500.5 C 331 516.24 318.24 529 302.5 529 C 286.76 529 274 516.24 274 500.5 Z M 350 330 C 350 314.536 362.536 302 378 302 C 393.464 302 406 314.536 406 330 L 406 577 C 406 592.464 393.464 605 378 605 C 362.536 605 350 592.464 350 577 Z M 425 255.5 C 425 239.76 437.76 227 453.5 227 C 469.241 227 482.001 239.76 482.001 255.5 L 482 651.5 C 482 667.24 469.24 680 453.5 680 C 437.76 680 425 667.24 425 651.5 Z M 198 368.5 C 198 352.76 210.76 340 226.5 340 C 242.24 340 255 352.76 255 368.5 L 255 538.5 C 255 546.37 251.81 553.495 246.653 558.653 C 241.495 563.81 234.37 567 226.5 567 C 210.76 567 198 554.24 198 538.5 Z M 123 330.5 C 123 314.76 135.76 302 151.5 302 C 167.24 302 180 314.76 180 330.5 L 180 576.5 C 180 592.24 167.24 605 151.5 605 C 135.76 605 123 592.24 123 576.5 Z M 501 368 C 501 352.536 513.536 340 529 340 C 544.464 340 557 352.536 557 368 L 557 539 C 557 554.464 544.464 567 529 567 C 513.536 567 501 554.464 501 539 Z M 576 292.5 C 576 276.76 588.76 264 604.5 264 C 620.24 264 633 276.76 633 292.5 L 633 613.5 C 633 621.37 629.81 628.495 624.653 633.653 C 619.495 638.81 612.37 642 604.5 642 C 588.76 642 576 629.24 576 613.5 Z M 652 406.5 C 652 390.76 664.76 378 680.5 378 C 696.24 378 709 390.76 709 406.5 L 709 500.5 C 709 516.24 696.24 529 680.5 529 C 664.76 529 652 516.24 652 500.5 Z M 727 330.5 C 727 314.76 739.76 302 755.5 302 C 771.24 302 784 314.76 784 330.5 L 784 576.5 C 784 592.24 771.24 605 755.5 605 C 739.76 605 727 592.24 727 576.5 Z"
        fill="#ffeb3b"
        stroke-width="1"
        fill-rule="evenodd"/>
</svg>
