<svg
    xmlns="http://www.w3.org/2000/svg"
    viewBox="0 0 907 907"
    id="vector"
    width="907px"
    height="907px">
    <path
        id="path_1"
        d="M 274 405.188 C 274 389.448 286.76 376.688 302.5 376.688 C 318.24 376.688 331 389.448 331 405.188 L 331 501.812 C 331 517.552 318.24 530.312 302.5 530.312 C 286.76 530.312 274 517.552 274 501.812 Z M 350 328.705 C 350 313.241 362.536 300.705 378 300.705 C 393.464 300.705 406 313.241 406 328.705 L 406 578.295 C 406 593.759 393.464 606.295 378 606.295 C 362.536 606.295 350 593.759 350 578.295 Z M 425 256.795 C 425 241.055 437.76 228.295 453.5 228.295 C 469.241 228.295 482.001 241.055 482.001 256.795 L 482 650.205 C 482 665.945 469.24 678.705 453.5 678.705 C 437.76 678.705 425 665.945 425 650.205 Z M 198 367.205 C 198 351.465 210.76 338.705 226.5 338.705 C 242.24 338.705 254.999 351.465 254.999 367.205 L 254.999 539.795 C 254.999 547.801 251.644 555.023 246.305 560.092 C 241.236 565.16 234.234 568.295 226.5 568.295 C 210.76 568.295 198 555.535 198 539.795 Z M 123 331.812 C 123 316.072 135.76 303.312 151.5 303.312 C 167.24 303.312 180 316.072 180 331.812 L 180 575.188 C 180 590.928 167.24 603.688 151.5 603.688 C 135.76 603.688 123 590.928 123 575.188 Z M 501 366.688 C 501 351.224 513.536 338.688 529 338.688 C 544.464 338.688 557 351.224 557 366.688 L 557 540.295 C 557 555.759 544.464 568.295 529 568.295 C 513.536 568.295 501 555.759 501 540.295 Z M 576 291.205 C 576 275.465 588.76 262.705 604.5 262.705 C 620.24 262.705 633 275.465 633 291.205 L 633 614.812 C 633 622.818 629.645 630.041 624.305 635.11 C 619.236 640.178 612.234 643.312 604.5 643.312 C 588.76 643.312 576 630.552 576 614.812 Z M 652 405.188 C 652 389.448 664.76 376.688 680.5 376.688 C 696.24 376.688 709 389.448 709 405.188 L 709 501.812 C 709 517.552 696.24 530.312 680.5 530.312 C 664.76 530.312 652 517.552 652 501.812 Z M 727 331.812 C 727 316.072 739.76 303.312 755.5 303.312 C 771.24 303.312 784 316.072 784 331.812 L 784 575.188 C 784 590.928 771.24 603.688 755.5 603.688 C 739.76 603.688 727 590.928 727 575.188 Z"
        fill="#fbea3e"
        stroke-width="1"
        fill-rule="evenodd"/>
</svg>
