<svg
    xmlns="http://www.w3.org/2000/svg"
    viewBox="0 0 907 907"
    id="vector"
    width="907px"
    height="907px">
    <path
        id="path_1"
        d="M 274 389.443 C 274 373.703 286.76 360.943 302.5 360.943 C 318.24 360.943 331 373.703 331 389.443 L 331 517.557 C 331 533.297 318.24 546.057 302.5 546.057 C 286.76 546.057 274 533.297 274 517.557 Z M 350 313.943 C 350 298.479 362.536 285.943 378 285.943 C 393.464 285.943 406 298.479 406 313.943 L 406 593.833 C 406 609.297 393.464 621.833 378 621.833 C 362.536 621.833 350 609.297 350 593.833 Z M 425 272.333 C 425 256.593 437.76 243.833 453.5 243.833 C 469.241 243.833 482.001 256.593 482.001 272.333 L 482 634.667 C 482 650.407 469.24 663.167 453.5 663.167 C 437.76 663.167 425 650.407 425 634.667 Z M 198 234.554 C 198 218.816 210.758 206.057 226.497 206.057 C 242.235 206.057 254.994 218.816 254.994 234.554 L 254.994 672.446 C 254.994 688.185 242.235 700.943 226.496 700.943 C 226.496 700.943 226.497 700.943 226.497 700.943 C 210.758 700.943 198 688.184 198 672.446 Z M 123 348.333 C 123 332.593 135.76 319.833 151.5 319.833 C 167.24 319.833 180 332.593 180 348.333 L 180 559.443 C 180 575.183 167.24 587.943 151.5 587.943 C 135.76 587.943 123 575.183 123 559.443 Z M 501 350.943 C 501 335.479 513.536 322.943 529 322.943 C 544.464 322.943 557 335.479 557 350.943 L 557 555.833 C 557 571.297 544.464 583.833 529 583.833 C 513.536 583.833 501 571.297 501 555.833 Z M 576 276.43 C 576 260.697 588.755 247.943 604.488 247.943 C 620.222 247.943 632.976 260.697 632.976 276.43 L 632.976 630.57 C 632.976 646.304 620.221 659.058 604.488 659.058 C 604.488 659.058 604.488 659.057 604.488 659.057 C 588.755 659.057 576 646.303 576 630.57 Z M 652 272.333 C 652 256.593 664.76 243.833 680.5 243.833 C 696.241 243.833 709.001 256.593 709.001 272.333 L 709 634.667 C 709 650.407 696.24 663.167 680.5 663.167 C 664.76 663.167 652 650.407 652 634.667 Z M 727 347.557 C 727 331.817 739.76 319.057 755.5 319.057 C 771.24 319.057 784 331.817 784 347.557 L 784 559.443 C 784 575.183 771.24 587.943 755.5 587.943 C 739.76 587.943 727 575.183 727 559.443 Z"
        fill="#b53d84"
        stroke-width="1"
        fill-rule="evenodd"/>
</svg>
