<svg
    xmlns="http://www.w3.org/2000/svg"
    viewBox="0 0 907 907"
    id="vector"
    width="907px"
    height="907px">
    <path
        id="path_1"
        d="M 274 396.039 C 274 380.299 286.76 367.539 302.5 367.539 C 318.24 367.539 331 380.299 331 396.039 L 331 510.961 C 331 526.701 318.24 539.461 302.5 539.461 C 286.76 539.461 274 526.701 274 510.961 Z M 350 320.539 C 350 305.075 362.536 292.539 378 292.539 C 393.464 292.539 406 305.075 406 320.539 L 406 587.324 C 406 602.788 393.464 615.324 378 615.324 C 362.536 615.324 350 602.788 350 587.324 Z M 425 265.824 C 425 250.084 437.76 237.324 453.5 237.324 C 469.241 237.324 482.001 250.084 482.001 265.824 L 482 641.176 C 482 656.916 469.24 669.676 453.5 669.676 C 437.76 669.676 425 656.916 425 641.176 Z M 198 227.959 C 198 212.22 210.759 199.461 226.499 199.461 C 242.238 199.461 254.997 212.22 254.997 227.959 L 254.997 679.041 C 254.997 694.781 242.237 707.54 226.498 707.54 C 226.498 707.54 226.499 707.539 226.499 707.539 C 210.759 707.539 198 694.78 198 679.041 Z M 123 341.824 C 123 326.084 135.76 313.324 151.5 313.324 C 167.24 313.324 180 326.084 180 341.824 L 180 566.039 C 180 581.779 167.24 594.539 151.5 594.539 C 135.76 594.539 123 581.779 123 566.039 Z M 501 357.539 C 501 342.075 513.536 329.539 529 329.539 C 544.464 329.539 557 342.075 557 357.539 L 557 549.324 C 557 564.788 544.464 577.324 529 577.324 C 513.536 577.324 501 564.788 501 549.324 Z M 576 283.025 C 576 267.293 588.754 254.539 604.487 254.539 C 620.219 254.539 632.973 267.293 632.973 283.025 L 632.973 623.975 C 632.973 639.708 620.219 652.461 604.486 652.461 C 604.486 652.461 604.487 652.461 604.487 652.461 C 588.754 652.461 576 639.707 576 623.975 Z M 652 265.824 C 652 250.084 664.76 237.324 680.5 237.324 C 696.241 237.324 709.001 250.084 709.001 265.824 L 709 641.176 C 709 656.916 696.24 669.676 680.5 669.676 C 664.76 669.676 652 656.916 652 641.176 Z M 727 340.961 C 727 325.221 739.76 312.461 755.5 312.461 C 771.24 312.461 784 325.221 784 340.961 L 784 566.039 C 784 581.779 771.24 594.539 755.5 594.539 C 739.76 594.539 727 581.779 727 566.039 Z"
        fill="#c93177"
        stroke-width="1"
        fill-rule="evenodd"/>
</svg>
