<svg
    xmlns="http://www.w3.org/2000/svg"
    viewBox="0 0 907 907"
    id="vector"
    width="907px"
    height="907px">
    <path
        id="path_1"
        d="M 274 331.765 C 274 316.025 286.76 303.265 302.5 303.265 C 318.24 303.265 331 316.025 331 331.765 L 331 575.235 C 331 590.975 318.24 603.735 302.5 603.735 C 286.76 603.735 274 590.975 274 575.235 Z M 350 256.265 C 350 240.801 362.536 228.265 378 228.265 C 393.464 228.265 406 240.801 406 256.265 L 406 650.752 C 406 666.216 393.464 678.752 378 678.752 C 362.536 678.752 350 666.216 350 650.752 Z M 425 180.765 C 425 165.025 437.76 152.265 453.5 152.265 C 469.24 152.265 482 165.025 482 180.765 L 482 726.235 C 482 741.975 469.24 754.735 453.5 754.735 C 437.76 754.735 425 741.975 425 726.235 Z M 198 291.252 C 198 275.512 210.76 262.752 226.5 262.752 C 242.24 262.752 255 275.512 255 291.252 L 255 614.765 C 255 622.766 251.651 629.985 246.318 635.057 C 241.245 640.128 234.239 643.265 226.5 643.265 C 210.76 643.265 198 630.505 198 614.765 Z M 123 405.252 C 123 389.512 135.76 376.752 151.5 376.752 C 167.24 376.752 180 389.512 180 405.252 L 180 501.765 C 180 517.505 167.24 530.265 151.5 530.265 C 135.76 530.265 123 517.505 123 501.765 Z M 501 293.265 C 501 277.801 513.536 265.265 529 265.265 C 544.464 265.265 557 277.801 557 293.265 L 557 612.752 C 557 628.216 544.464 640.752 529 640.752 C 513.536 640.752 501 628.216 501 612.752 Z M 576 367.252 C 576 351.512 588.76 338.752 604.5 338.752 C 620.24 338.752 632.999 351.512 632.999 367.252 L 632.999 539.748 C 632.999 547.749 629.65 554.968 624.317 560.04 C 619.245 565.111 612.239 568.248 604.5 568.248 C 588.76 568.248 576 555.488 576 539.748 Z M 652 329.252 C 652 313.512 664.76 300.752 680.5 300.752 C 696.24 300.752 709 313.512 709 329.252 L 709 577.748 C 709 593.488 696.24 606.248 680.5 606.248 C 664.76 606.248 652 593.488 652 577.748 Z M 727 404.252 C 727 388.512 739.76 375.752 755.5 375.752 C 771.24 375.752 784 388.512 784 404.252 L 784 501.765 C 784 517.505 771.24 530.265 755.5 530.265 C 739.76 530.265 727 517.505 727 501.765 Z"
        fill="#e2e0db"
        stroke-width="1"
        fill-rule="evenodd"/>
</svg>
