<svg
    xmlns="http://www.w3.org/2000/svg"
    viewBox="0 0 907 907"
    id="vector"
    width="907px"
    height="907px">
    <path
        id="path_1"
        d="M 274 330.5 C 274 314.76 286.76 302 302.5 302 C 318.24 302 331 314.76 331 330.5 L 331 576.5 C 331 592.24 318.24 605 302.5 605 C 286.76 605 274 592.24 274 576.5 Z M 350 255 C 350 239.536 362.536 227 378 227 C 393.464 227 406 239.536 406 255 L 406 652 C 406 667.464 393.464 680 378 680 C 362.536 680 350 667.464 350 652 Z M 425 330.5 C 425 314.76 437.76 302 453.5 302 C 469.24 302 482 314.76 482 330.5 L 482 576.5 C 482 592.24 469.24 605 453.5 605 C 437.76 605 425 592.24 425 576.5 Z M 198 293.484 C 198 277.753 210.753 265 226.485 265 C 242.216 265 254.969 277.753 254.969 293.484 L 254.969 613.516 C 254.969 629.248 242.216 642 226.484 642 C 226.484 642 226.485 642 226.485 642 C 210.753 642 198 629.247 198 613.516 Z M 123 406.5 C 123 390.76 135.76 378 151.5 378 C 167.24 378 180 390.76 180 406.5 L 180 500.5 C 180 516.24 167.24 529 151.5 529 C 135.76 529 123 516.24 123 500.5 Z M 501 292 C 501 276.536 513.536 264 529 264 C 544.464 264 557 276.536 557 292 L 557 614 C 557 629.464 544.464 642 529 642 C 513.536 642 501 629.464 501 614 Z M 576 217.5 C 576 201.76 588.76 189 604.5 189 C 620.241 189 633.001 201.76 633.001 217.5 L 633 689.5 C 633 705.241 620.24 718.001 604.5 718.001 C 604.5 718.001 604.5 718 604.5 718 C 588.76 718 576 705.24 576 689.5 Z M 652 330.5 C 652 314.76 664.76 302 680.5 302 C 696.24 302 709 314.76 709 330.5 L 709 576.5 C 709 592.24 696.24 605 680.5 605 C 664.76 605 652 592.24 652 576.5 Z M 727 406.5 C 727 390.76 739.76 378 755.5 378 C 771.24 378 784 390.76 784 406.5 L 784 500.5 C 784 516.24 771.24 529 755.5 529 C 739.76 529 727 516.24 727 500.5 Z"
        fill="#03a9f4"
        stroke-width="1"
        fill-rule="evenodd"/>
</svg>
