<svg
    xmlns="http://www.w3.org/2000/svg"
    viewBox="0 0 907 907"
    id="vector"
    width="907px"
    height="907px">
    <path
        id="path_1"
        d="M 274 347.557 C 274 331.817 286.76 319.057 302.5 319.057 C 318.24 319.057 331 331.817 331 347.557 L 331 559.443 C 331 575.183 318.24 587.943 302.5 587.943 C 286.76 587.943 274 575.183 274 559.443 Z M 350 271.833 C 350 256.369 362.536 243.833 378 243.833 C 393.464 243.833 406 256.369 406 271.833 L 406 635.167 C 406 650.631 393.464 663.167 378 663.167 C 362.536 663.167 350 650.631 350 635.167 Z M 425 313.667 C 425 297.927 437.76 285.167 453.5 285.167 C 469.24 285.167 482 297.927 482 313.667 L 482 593.333 C 482 609.073 469.24 621.833 453.5 621.833 C 437.76 621.833 425 609.073 425 593.333 Z M 198 310.32 C 198 294.587 210.755 281.833 226.488 281.833 C 242.221 281.833 254.976 294.587 254.976 310.32 L 254.976 596.68 C 254.976 610.647 244.369 622.136 231.011 623.294 C 229.853 624.451 228.255 625.167 226.488 625.167 C 210.755 625.167 198 612.413 198 596.68 Z M 123 389.443 C 123 373.703 135.76 360.943 151.5 360.943 C 167.24 360.943 180 373.703 180 389.443 L 180 517.557 C 180 533.297 167.24 546.057 151.5 546.057 C 135.76 546.057 123 533.297 123 517.557 Z M 501 309.057 C 501 293.593 513.536 281.057 529 281.057 C 544.464 281.057 557 293.593 557 309.057 L 557 597.167 C 557 612.631 544.464 625.167 529 625.167 C 513.536 625.167 501 612.631 501 597.167 Z M 576 234.333 C 576 218.593 588.76 205.833 604.5 205.833 C 620.241 205.833 633.001 218.593 633.001 234.333 L 633 672.443 C 633 686.417 622.388 697.912 609.023 699.07 C 607.865 700.227 606.266 700.943 604.5 700.943 C 588.76 700.943 576 688.183 576 672.443 Z M 652 347.557 C 652 331.817 664.76 319.057 680.5 319.057 C 696.24 319.057 709 331.817 709 347.557 L 709 559.443 C 709 575.183 696.24 587.943 680.5 587.943 C 664.76 587.943 652 575.183 652 559.443 Z M 727 389.443 C 727 373.703 739.76 360.943 755.5 360.943 C 771.24 360.943 784 373.703 784 389.443 L 784 517.557 C 784 533.297 771.24 546.057 755.5 546.057 C 739.76 546.057 727 533.297 727 517.557 Z"
        fill="#3cb8ca"
        stroke-width="1"
        fill-rule="evenodd"/>
</svg>
