<svg
    xmlns="http://www.w3.org/2000/svg"
    viewBox="0 0 907 907"
    id="vector"
    width="907px"
    height="907px">
    <path
        id="path_1"
        d="M 274 405.235 C 274 389.495 286.76 376.735 302.5 376.735 C 318.24 376.735 331 389.495 331 405.235 L 331 501.765 C 331 517.505 318.24 530.265 302.5 530.265 C 286.76 530.265 274 517.505 274 501.765 Z M 350 328.752 C 350 313.288 362.536 300.752 378 300.752 C 393.464 300.752 406 313.288 406 328.752 L 406 578.248 C 406 593.712 393.464 606.248 378 606.248 C 362.536 606.248 350 593.712 350 578.248 Z M 425 254.235 C 425 238.495 437.76 225.735 453.5 225.735 C 469.241 225.735 482.001 238.495 482.001 254.235 L 482 652.765 C 482 668.505 469.24 681.265 453.5 681.265 C 437.76 681.265 425 668.505 425 652.765 Z M 198 367.235 C 198 351.495 210.76 338.735 226.5 338.735 C 242.24 338.735 255 351.495 255 367.235 L 255 539.748 C 255 555.488 242.24 568.248 226.5 568.248 C 210.76 568.248 198 555.488 198 539.748 Z M 123 331.765 C 123 316.025 135.76 303.265 151.5 303.265 C 167.24 303.265 180 316.025 180 331.765 L 180 575.235 C 180 590.975 167.24 603.735 151.5 603.735 C 135.76 603.735 123 590.975 123 575.235 Z M 501 366.735 C 501 351.271 513.536 338.735 529 338.735 C 544.464 338.735 557 351.271 557 366.735 L 557 540.248 C 557 555.712 544.464 568.248 529 568.248 C 513.536 568.248 501 555.712 501 540.248 Z M 576 293.765 C 576 278.025 588.76 265.265 604.5 265.265 C 620.24 265.265 633 278.025 633 293.765 L 633 612.252 C 633 627.993 620.24 640.752 604.5 640.752 C 588.76 640.752 576 627.992 576 612.252 Z M 652 405.235 C 652 389.495 664.76 376.735 680.5 376.735 C 696.24 376.735 709 389.495 709 405.235 L 709 501.765 C 709 517.505 696.24 530.265 680.5 530.265 C 664.76 530.265 652 517.505 652 501.765 Z M 727 331.748 C 727 316.008 739.76 303.248 755.5 303.248 C 771.24 303.248 784 316.008 784 331.748 L 784 575.235 C 784 590.975 771.24 603.735 755.5 603.735 C 739.76 603.735 727 590.975 727 575.235 Z"
        fill="#ffeb3e"
        stroke-width="1"
        fill-rule="evenodd"/>
</svg>
