<svg
    xmlns="http://www.w3.org/2000/svg"
    viewBox="0 0 907 907"
    id="vector"
    width="907px"
    height="907px">
    <path
        id="path_1"
        d="M 274 388.519 C 274 372.779 286.76 360.019 302.5 360.019 C 318.24 360.019 331 372.779 331 388.519 L 331 518.481 C 331 534.221 318.24 546.981 302.5 546.981 C 286.76 546.981 274 534.221 274 518.481 Z M 350 312.256 C 350 296.792 362.536 284.256 378 284.256 C 393.464 284.256 406 296.792 406 312.256 L 406 594.744 C 406 610.208 393.464 622.744 378 622.744 C 362.536 622.744 350 610.208 350 594.744 Z M 425 273.244 C 425 257.504 437.76 244.744 453.5 244.744 C 469.241 244.744 482.001 257.504 482.001 273.244 L 482 633.756 C 482 649.496 469.24 662.256 453.5 662.256 C 437.76 662.256 425 649.496 425 633.756 Z M 198 350.752 C 198 335.014 210.758 322.256 226.496 322.256 C 242.234 322.256 254.993 335.014 254.993 350.752 L 254.993 556.248 C 254.993 565.978 249.54 574.434 241.881 578.372 C 237.944 582.309 232.505 584.744 226.496 584.744 C 210.758 584.744 198 571.986 198 556.248 Z M 123 348.481 C 123 332.741 135.76 319.981 151.5 319.981 C 167.24 319.981 180 332.741 180 348.481 L 180 558.519 C 180 574.259 167.24 587.019 151.5 587.019 C 135.76 587.019 123 574.259 123 558.519 Z M 501 350.019 C 501 334.555 513.536 322.019 529 322.019 C 544.464 322.019 557 334.555 557 350.019 L 557 556.744 C 557 572.208 544.464 584.744 529 584.744 C 513.536 584.744 501 572.208 501 556.744 Z M 576 274.756 C 576 259.016 588.76 246.256 604.5 246.256 C 620.24 246.256 633 259.016 633 274.756 L 633 631.481 C 633 641.213 627.546 649.671 619.885 653.609 C 615.947 657.546 610.508 659.981 604.5 659.981 C 588.76 659.981 576 647.221 576 631.481 Z M 652 388.519 C 652 372.779 664.76 360.019 680.5 360.019 C 696.24 360.019 709 372.779 709 388.519 L 709 518.481 C 709 534.221 696.24 546.981 680.5 546.981 C 664.76 546.981 652 534.221 652 518.481 Z M 727 348.481 C 727 332.741 739.76 319.981 755.5 319.981 C 771.24 319.981 784 332.741 784 348.481 L 784 558.519 C 784 574.259 771.24 587.019 755.5 587.019 C 739.76 587.019 727 574.259 727 558.519 Z"
        fill="#c3db67"
        stroke-width="1"
        fill-rule="evenodd"/>
</svg>
