<svg
    xmlns="http://www.w3.org/2000/svg"
    viewBox="0 0 907 907"
    id="vector"
    width="907px"
    height="907px">
    <path
        id="path_1"
        d="M 274 348.481 C 274 332.741 286.76 319.981 302.5 319.981 C 318.24 319.981 331 332.741 331 348.481 L 331 558.519 C 331 574.259 318.24 587.019 302.5 587.019 C 286.76 587.019 274 574.259 274 558.519 Z M 350 272.981 C 350 257.517 362.536 244.981 378 244.981 C 393.464 244.981 406 257.517 406 272.981 L 406 634.256 C 406 649.72 393.464 662.256 378 662.256 C 362.536 662.256 350 649.72 350 634.256 Z M 425 312.756 C 425 297.016 437.76 284.256 453.5 284.256 C 469.24 284.256 482 297.016 482 312.756 L 482 594.244 C 482 609.984 469.24 622.744 453.5 622.744 C 437.76 622.744 425 609.984 425 594.244 Z M 198 275.507 C 198 259.774 210.755 247.019 226.489 247.019 C 242.222 247.019 254.977 259.774 254.977 275.507 L 254.977 631.493 C 254.977 647.227 242.222 659.981 226.488 659.981 C 226.488 659.981 226.489 659.981 226.489 659.981 C 210.755 659.981 198 647.226 198 631.493 Z M 123 388.756 C 123 373.016 135.76 360.256 151.5 360.256 C 167.24 360.256 180 373.016 180 388.756 L 180 518.481 C 180 534.221 167.24 546.981 151.5 546.981 C 135.76 546.981 123 534.221 123 518.481 Z M 501 309.981 C 501 294.517 513.536 281.981 529 281.981 C 544.464 281.981 557 294.517 557 309.981 L 557 596.256 C 557 611.72 544.464 624.256 529 624.256 C 513.536 624.256 501 611.72 501 596.256 Z M 576 235.477 C 576 219.739 588.758 206.981 604.496 206.981 C 620.235 206.981 632.993 219.739 632.993 235.477 L 632.993 671.523 C 632.993 687.262 620.234 700.02 604.496 700.02 C 604.496 700.02 604.496 700.019 604.496 700.019 C 588.758 700.019 576 687.261 576 671.523 Z M 652 312.756 C 652 297.016 664.76 284.256 680.5 284.256 C 696.24 284.256 709 297.016 709 312.756 L 709 594.244 C 709 609.984 696.24 622.744 680.5 622.744 C 664.76 622.744 652 609.984 652 594.244 Z M 727 388.519 C 727 372.779 739.76 360.019 755.5 360.019 C 771.24 360.019 784 372.779 784 388.519 L 784 518.481 C 784 534.221 771.24 546.981 755.5 546.981 C 739.76 546.981 727 534.221 727 518.481 Z"
        fill="#3988d2"
        stroke-width="1"
        fill-rule="evenodd"/>
</svg>
