<svg
    xmlns="http://www.w3.org/2000/svg"
    viewBox="0 0 907 907"
    id="vector"
    width="907px"
    height="907px">
    <path
        id="path_1"
        d="M 274 365.251 C 274 349.511 286.76 336.751 302.5 336.751 C 318.24 336.751 331 349.511 331 365.251 L 331 541.749 C 331 557.489 318.24 570.249 302.5 570.249 C 286.76 570.249 274 557.489 274 541.749 Z M 350 289.294 C 350 273.83 362.536 261.294 378 261.294 C 393.464 261.294 406 273.83 406 289.294 L 406 617.706 C 406 633.17 393.464 645.706 378 645.706 C 362.536 645.706 350 633.17 350 617.706 Z M 425 214.251 C 425 198.511 437.76 185.751 453.5 185.751 C 469.24 185.751 482 198.511 482 214.251 L 482 692.749 C 482 708.489 469.24 721.249 453.5 721.249 C 437.76 721.249 425 708.489 425 692.749 Z M 198 327.251 C 198 311.511 210.76 298.751 226.5 298.751 C 242.24 298.751 255 311.511 255 327.251 L 255 579.206 C 255 594.947 242.24 607.706 226.5 607.706 C 210.76 607.706 198 594.946 198 579.206 Z M 123 371.749 C 123 356.009 135.76 343.249 151.5 343.249 C 167.24 343.249 180 356.009 180 371.749 L 180 535.251 C 180 550.991 167.24 563.751 151.5 563.751 C 135.76 563.751 123 550.991 123 535.251 Z M 501 326.751 C 501 311.287 513.536 298.751 529 298.751 C 544.464 298.751 557 311.287 557 326.751 L 557 579.706 C 557 595.17 544.464 607.706 529 607.706 C 513.536 607.706 501 595.17 501 579.706 Z M 576 333.749 C 576 318.009 588.76 305.249 604.5 305.249 C 620.24 305.249 633 318.009 633 333.749 L 633 572.794 C 633 588.534 620.24 601.294 604.5 601.294 C 588.76 601.294 576 588.534 576 572.794 Z M 652 365.251 C 652 349.511 664.76 336.751 680.5 336.751 C 696.24 336.751 709 349.511 709 365.251 L 709 541.749 C 709 557.489 696.24 570.249 680.5 570.249 C 664.76 570.249 652 557.489 652 541.749 Z M 727 371.206 C 727 355.466 739.76 342.706 755.5 342.706 C 771.24 342.706 784 355.466 784 371.206 L 784 535.251 C 784 550.991 771.24 563.751 755.5 563.751 C 739.76 563.751 727 550.991 727 535.251 Z"
        fill="#efe793"
        stroke-width="1"
        fill-rule="evenodd"/>
</svg>
