<svg
    xmlns="http://www.w3.org/2000/svg"
    viewBox="0 0 907 907"
    id="vector"
    width="907px"
    height="907px">
    <path
        id="path_1"
        d="M 274 396.039 C 274 380.299 286.76 367.539 302.5 367.539 C 318.24 367.539 331 380.299 331 396.039 L 331 510.961 C 331 526.701 318.24 539.461 302.5 539.461 C 286.76 539.461 274 526.701 274 510.961 Z M 350 319.676 C 350 304.212 362.536 291.676 378 291.676 C 393.464 291.676 406 304.212 406 319.676 L 406 587.324 C 406 602.788 393.464 615.324 378 615.324 C 362.536 615.324 350 602.788 350 587.324 Z M 425 245.039 C 425 229.299 437.76 216.539 453.5 216.539 C 469.241 216.539 482.001 229.299 482.001 245.039 L 482 661.961 C 482 677.701 469.24 690.461 453.5 690.461 C 437.76 690.461 425 677.701 425 661.961 Z M 198 358.039 C 198 342.299 210.76 329.539 226.5 329.539 C 242.24 329.539 255 342.299 255 358.039 L 255 548.824 C 255 564.564 242.24 577.324 226.5 577.324 C 210.76 577.324 198 564.564 198 548.824 Z M 123 340.961 C 123 325.221 135.76 312.461 151.5 312.461 C 167.24 312.461 180 325.221 180 340.961 L 180 566.039 C 180 581.779 167.24 594.539 151.5 594.539 C 135.76 594.539 123 581.779 123 566.039 Z M 501 357.539 C 501 342.075 513.536 329.539 529 329.539 C 544.464 329.539 557 342.075 557 357.539 L 557 549.324 C 557 564.788 544.464 577.324 529 577.324 C 513.536 577.324 501 564.788 501 549.324 Z M 576 302.961 C 576 287.221 588.76 274.461 604.5 274.461 C 620.24 274.461 633 287.221 633 302.961 L 633 603.176 C 633 618.917 620.24 631.676 604.5 631.676 C 588.76 631.676 576 618.916 576 603.176 Z M 652 396.039 C 652 380.299 664.76 367.539 680.5 367.539 C 696.24 367.539 709 380.299 709 396.039 L 709 510.961 C 709 526.701 696.24 539.461 680.5 539.461 C 664.76 539.461 652 526.701 652 510.961 Z M 727 340.824 C 727 325.084 739.76 312.324 755.5 312.324 C 771.24 312.324 784 325.084 784 340.824 L 784 566.039 C 784 581.779 771.24 594.539 755.5 594.539 C 739.76 594.539 727 581.779 727 566.039 Z"
        fill="#fbea51"
        stroke-width="1"
        fill-rule="evenodd"/>
</svg>
