<svg
    xmlns="http://www.w3.org/2000/svg"
    viewBox="0 0 907 907"
    id="vector"
    width="907px"
    height="907px">
    <path
        id="path_1"
        d="M 274 406.206 C 274 390.466 286.76 377.706 302.5 377.706 C 318.24 377.706 331 390.466 331 406.206 L 331 500.794 C 331 516.534 318.24 529.294 302.5 529.294 C 286.76 529.294 274 516.534 274 500.794 Z M 350 329.71 C 350 314.246 362.536 301.71 378 301.71 C 393.464 301.71 406 314.246 406 329.71 L 406 577.29 C 406 592.754 393.464 605.29 378 605.29 C 362.536 605.29 350 592.754 350 577.29 Z M 425 255.206 C 425 239.466 437.76 226.706 453.5 226.706 C 469.241 226.706 482.001 239.466 482.001 255.206 L 482 651.794 C 482 667.534 469.24 680.294 453.5 680.294 C 437.76 680.294 425 667.534 425 651.794 Z M 198 368.206 C 198 352.466 210.76 339.706 226.5 339.706 C 242.24 339.706 255 352.466 255 368.206 L 255 538.79 C 255 554.53 242.24 567.29 226.5 567.29 C 210.76 567.29 198 554.53 198 538.79 Z M 123 330.794 C 123 315.054 135.76 302.294 151.5 302.294 C 167.24 302.294 180 315.054 180 330.794 L 180 576.206 C 180 591.946 167.24 604.706 151.5 604.706 C 135.76 604.706 123 591.946 123 576.206 Z M 501 367.706 C 501 352.242 513.536 339.706 529 339.706 C 544.464 339.706 557 352.242 557 367.706 L 557 539.29 C 557 554.754 544.464 567.29 529 567.29 C 513.536 567.29 501 554.754 501 539.29 Z M 576 292.794 C 576 277.054 588.76 264.294 604.5 264.294 C 620.24 264.294 633 277.054 633 292.794 L 633 613.21 C 633 628.951 620.24 641.71 604.5 641.71 C 588.76 641.71 576 628.95 576 613.21 Z M 652 406.206 C 652 390.466 664.76 377.706 680.5 377.706 C 696.24 377.706 709 390.466 709 406.206 L 709 500.794 C 709 516.534 696.24 529.294 680.5 529.294 C 664.76 529.294 652 516.534 652 500.794 Z M 727 330.79 C 727 315.05 739.76 302.29 755.5 302.29 C 771.24 302.29 784 315.05 784 330.79 L 784 576.206 C 784 591.946 771.24 604.706 755.5 604.706 C 739.76 604.706 727 591.946 727 576.206 Z"
        fill="#ffeb3c"
        stroke-width="1"
        fill-rule="evenodd"/>
</svg>
