<svg
    xmlns="http://www.w3.org/2000/svg"
    viewBox="0 0 907 907"
    id="vector"
    width="907px"
    height="907px">
    <path
        id="path_1"
        d="M 274 330.5 C 274 314.76 286.76 302 302.5 302 C 318.24 302 331 314.76 331 330.5 L 331 576.5 C 331 592.24 318.24 605 302.5 605 C 286.76 605 274 592.24 274 576.5 Z M 350 255 C 350 239.536 362.536 227 378 227 C 393.464 227 406 239.536 406 255 L 406 652 C 406 667.464 393.464 680 378 680 C 362.536 680 350 667.464 350 652 Z M 425 179.5 C 425 163.76 437.76 151 453.5 151 C 469.24 151 482 163.76 482 179.5 L 482 727.5 C 482 743.24 469.24 756 453.5 756 C 437.76 756 425 743.24 425 727.5 Z M 198 292.5 C 198 276.76 210.76 264 226.5 264 C 242.24 264 255 276.76 255 292.5 L 255 613.5 C 255 629.241 242.24 642 226.5 642 C 210.76 642 198 629.24 198 613.5 Z M 123 406.5 C 123 390.76 135.76 378 151.5 378 C 167.24 378 180 390.76 180 406.5 L 180 500.5 C 180 516.24 167.24 529 151.5 529 C 135.76 529 123 516.24 123 500.5 Z M 501 292 C 501 276.536 513.536 264 529 264 C 544.464 264 557 276.536 557 292 L 557 614 C 557 629.464 544.464 642 529 642 C 513.536 642 501 629.464 501 614 Z M 576 368.5 C 576 352.76 588.76 340 604.5 340 C 620.24 340 633 352.76 633 368.5 L 633 538.5 C 633 554.24 620.24 567 604.5 567 C 588.76 567 576 554.24 576 538.5 Z M 652 330.5 C 652 314.76 664.76 302 680.5 302 C 696.24 302 709 314.76 709 330.5 L 709 576.5 C 709 592.24 696.24 605 680.5 605 C 664.76 605 652 592.24 652 576.5 Z M 727 405.5 C 727 389.76 739.76 377 755.5 377 C 771.24 377 784 389.76 784 405.5 L 784 500.5 C 784 516.24 771.24 529 755.5 529 C 739.76 529 727 516.24 727 500.5 Z"
        fill="#e2e3dd"
        stroke-width="1"
        fill-rule="evenodd"/>
</svg>
